<?xml version="1.0" encoding="UTF-8" standalone="no"?>
<!DOCTYPE svg PUBLIC "-//W3C//DTD SVG 1.1//EN"
 "http://www.w3.org/Graphics/SVG/1.1/DTD/svg11.dtd">
<!-- Generated by graphviz version 2.50.0 (20220117.2223)
 -->
<!-- Title: G Pages: 1 -->
<svg width="1048pt" height="259pt"
 viewBox="0.00 0.00 1048.00 259.00" xmlns="http://www.w3.org/2000/svg" xmlns:xlink="http://www.w3.org/1999/xlink">
<g id="graph0" class="graph" transform="scale(1 1) rotate(0) translate(4 255)">
<title>G</title>
<polygon fill="white" stroke="transparent" points="-4,4 -4,-255 1044,-255 1044,4 -4,4"/>
<g id="clust1" class="cluster">
<title>cluster_G</title>
<path fill="#808080" fill-opacity="0.094118" stroke="black" d="M20,-8C20,-8 1020,-8 1020,-8 1026,-8 1032,-14 1032,-20 1032,-20 1032,-231 1032,-231 1032,-237 1026,-243 1020,-243 1020,-243 20,-243 20,-243 14,-243 8,-237 8,-231 8,-231 8,-20 8,-20 8,-14 14,-8 20,-8"/>
</g>
<g id="clust2" class="cluster">
<title>cluster_saltproc__app</title>
<path fill="#808080" fill-opacity="0.094118" stroke="black" d="M172,-16C172,-16 1012,-16 1012,-16 1018,-16 1024,-22 1024,-28 1024,-28 1024,-223 1024,-223 1024,-229 1018,-235 1012,-235 1012,-235 172,-235 172,-235 166,-235 160,-229 160,-223 160,-223 160,-28 160,-28 160,-22 166,-16 172,-16"/>
<text text-anchor="middle" x="592" y="-219.8" font-family="Times,serif" font-size="14.00">saltproc.app</text>
</g>
<!-- saltproc__app -->
<g id="node1" class="node">
<title>saltproc__app</title>
<ellipse fill="#ffffff" fill-opacity="0.698039" stroke="black" cx="84" cy="-186" rx="68.49" ry="18"/>
<text text-anchor="middle" x="84" y="-182.3" font-family="Times,serif" font-size="14.00" fill="#000000">saltproc.app</text>
</g>
<!-- saltproc__app__check_restart -->
<g id="node2" class="node">
<title>saltproc__app__check_restart</title>
<ellipse fill="#ff9999" fill-opacity="0.698039" stroke="black" cx="241" cy="-114" rx="73.39" ry="18"/>
<text text-anchor="middle" x="241" y="-110.3" font-family="Times,serif" font-size="14.00" fill="#000000">check_restart</text>
</g>
<!-- saltproc__app__parse_arguments -->
<g id="node3" class="node">
<title>saltproc__app__parse_arguments</title>
<ellipse fill="#ff9999" fill-opacity="0.698039" stroke="black" cx="423" cy="-114" rx="90.98" ry="18"/>
<text text-anchor="middle" x="423" y="-110.3" font-family="Times,serif" font-size="14.00" fill="#000000">parse_arguments</text>
</g>
<!-- saltproc__app__read_dot -->
<g id="node4" class="node">
<title>saltproc__app__read_dot</title>
<ellipse fill="#ff9999" fill-opacity="0.698039" stroke="black" cx="673" cy="-42" rx="51.19" ry="18"/>
<text text-anchor="middle" x="673" y="-38.3" font-family="Times,serif" font-size="14.00" fill="#000000">read_dot</text>
</g>
<!-- saltproc__app__read_feeds_from_input -->
<g id="node5" class="node">
<title>saltproc__app__read_feeds_from_input</title>
<ellipse fill="#ff9999" fill-opacity="0.698039" stroke="black" cx="487" cy="-42" rx="116.18" ry="18"/>
<text text-anchor="middle" x="487" y="-38.3" font-family="Times,serif" font-size="14.00" fill="#000000">read_feeds_from_input</text>
</g>
<!-- saltproc__app__read_main_input -->
<g id="node6" class="node">
<title>saltproc__app__read_main_input</title>
<ellipse fill="#ff9999" fill-opacity="0.698039" stroke="black" cx="620" cy="-114" rx="87.99" ry="18"/>
<text text-anchor="middle" x="620" y="-110.3" font-family="Times,serif" font-size="14.00" fill="#000000">read_main_input</text>
</g>
<!-- saltproc__app__read_processes_from_input -->
<g id="node7" class="node">
<title>saltproc__app__read_processes_from_input</title>
<ellipse fill="#ff9999" fill-opacity="0.698039" stroke="black" cx="879" cy="-42" rx="137.28" ry="18"/>
<text text-anchor="middle" x="879" y="-38.3" font-family="Times,serif" font-size="14.00" fill="#000000">read_processes_from_input</text>
</g>
<!-- saltproc__app__refill -->
<g id="node8" class="node">
<title>saltproc__app__refill</title>
<ellipse fill="#ff9999" fill-opacity="0.698039" stroke="black" cx="758" cy="-114" rx="32.49" ry="18"/>
<text text-anchor="middle" x="758" y="-110.3" font-family="Times,serif" font-size="14.00" fill="#000000">refill</text>
</g>
<!-- saltproc__app__refill&#45;&gt;saltproc__app__read_feeds_from_input -->
<g id="edge3" class="edge">
<title>saltproc__app__refill&#45;&gt;saltproc__app__read_feeds_from_input</title>
<path fill="none" stroke="#000000" d="M733.53,-102.08C728.15,-99.89 722.43,-97.74 717,-96 668.38,-80.44 612.61,-67.47 568.17,-58.26"/>
<polygon fill="#000000" stroke="#000000" points="568.79,-54.81 558.29,-56.23 567.38,-61.67 568.79,-54.81"/>
</g>
<!-- saltproc__app__reprocessing -->
<g id="node9" class="node">
<title>saltproc__app__reprocessing</title>
<ellipse fill="#ff9999" fill-opacity="0.698039" stroke="black" cx="879" cy="-114" rx="70.69" ry="18"/>
<text text-anchor="middle" x="879" y="-110.3" font-family="Times,serif" font-size="14.00" fill="#000000">reprocessing</text>
</g>
<!-- saltproc__app__reprocessing&#45;&gt;saltproc__app__read_dot -->
<g id="edge2" class="edge">
<title>saltproc__app__reprocessing&#45;&gt;saltproc__app__read_dot</title>
<path fill="none" stroke="#000000" d="M838.3,-99.17C803.68,-87.41 754.02,-70.53 718.18,-58.35"/>
<polygon fill="#000000" stroke="#000000" points="719.06,-54.95 708.46,-55.05 716.8,-61.58 719.06,-54.95"/>
</g>
<!-- saltproc__app__reprocessing&#45;&gt;saltproc__app__read_processes_from_input -->
<g id="edge1" class="edge">
<title>saltproc__app__reprocessing&#45;&gt;saltproc__app__read_processes_from_input</title>
<path fill="none" stroke="#000000" d="M879,-95.7C879,-87.98 879,-78.71 879,-70.11"/>
<polygon fill="#000000" stroke="#000000" points="882.5,-70.1 879,-60.1 875.5,-70.1 882.5,-70.1"/>
</g>
<!-- saltproc__app__run -->
<g id="node10" class="node">
<title>saltproc__app__run</title>
<ellipse fill="#ff9999" fill-opacity="0.698039" stroke="black" cx="620" cy="-186" rx="27" ry="18"/>
<text text-anchor="middle" x="620" y="-182.3" font-family="Times,serif" font-size="14.00" fill="#000000">run</text>
</g>
<!-- saltproc__app__run&#45;&gt;saltproc__app__check_restart -->
<g id="edge7" class="edge">
<title>saltproc__app__run&#45;&gt;saltproc__app__check_restart</title>
<path fill="none" stroke="#000000" d="M600.81,-173.07C597.01,-171.12 592.96,-169.31 589,-168 475.68,-130.69 440.59,-152.12 323,-132 316.79,-130.94 310.34,-129.75 303.9,-128.51"/>
<polygon fill="#000000" stroke="#000000" points="304.32,-125.02 293.83,-126.52 302.96,-131.89 304.32,-125.02"/>
</g>
<!-- saltproc__app__run&#45;&gt;saltproc__app__parse_arguments -->
<g id="edge4" class="edge">
<title>saltproc__app__run&#45;&gt;saltproc__app__parse_arguments</title>
<path fill="none" stroke="#000000" d="M600.27,-173.45C596.59,-171.5 592.72,-169.6 589,-168 555.51,-153.63 516.78,-141.05 485.16,-131.75"/>
<polygon fill="#000000" stroke="#000000" points="485.74,-128.28 475.16,-128.85 483.79,-135 485.74,-128.28"/>
</g>
<!-- saltproc__app__run&#45;&gt;saltproc__app__read_main_input -->
<g id="edge5" class="edge">
<title>saltproc__app__run&#45;&gt;saltproc__app__read_main_input</title>
<path fill="none" stroke="#000000" d="M620,-167.7C620,-159.98 620,-150.71 620,-142.11"/>
<polygon fill="#000000" stroke="#000000" points="623.5,-142.1 620,-132.1 616.5,-142.1 623.5,-142.1"/>
</g>
<!-- saltproc__app__run&#45;&gt;saltproc__app__refill -->
<g id="edge8" class="edge">
<title>saltproc__app__run&#45;&gt;saltproc__app__refill</title>
<path fill="none" stroke="#000000" d="M640.96,-174.37C663.39,-162.99 699.26,-144.79 725.39,-131.54"/>
<polygon fill="#000000" stroke="#000000" points="727.19,-134.55 734.53,-126.91 724.03,-128.31 727.19,-134.55"/>
</g>
<!-- saltproc__app__run&#45;&gt;saltproc__app__reprocessing -->
<g id="edge6" class="edge">
<title>saltproc__app__run&#45;&gt;saltproc__app__reprocessing</title>
<path fill="none" stroke="#000000" d="M644.83,-178.29C685.44,-167.31 767.07,-145.25 822.39,-130.3"/>
<polygon fill="#000000" stroke="#000000" points="823.31,-133.68 832.05,-127.69 821.48,-126.92 823.31,-133.68"/>
</g>
</g>
</svg>
