<?xml version="1.0" encoding="UTF-8" standalone="no"?>
<!DOCTYPE svg PUBLIC "-//W3C//DTD SVG 1.1//EN"
 "http://www.w3.org/Graphics/SVG/1.1/DTD/svg11.dtd">
<!-- Generated by graphviz version 2.50.0 (20220117.2223)
 -->
<!-- Title: G Pages: 1 -->
<svg width="884pt" height="259pt"
 viewBox="0.00 0.00 884.00 259.00" xmlns="http://www.w3.org/2000/svg" xmlns:xlink="http://www.w3.org/1999/xlink">
<g id="graph0" class="graph" transform="scale(1 1) rotate(0) translate(4 255)">
<title>G</title>
<polygon fill="white" stroke="transparent" points="-4,4 -4,-255 880,-255 880,4 -4,4"/>
<g id="clust1" class="cluster">
<title>cluster_G</title>
<path fill="#808080" fill-opacity="0.094118" stroke="black" d="M20,-8C20,-8 856,-8 856,-8 862,-8 868,-14 868,-20 868,-20 868,-231 868,-231 868,-237 862,-243 856,-243 856,-243 20,-243 20,-243 14,-243 8,-237 8,-231 8,-231 8,-20 8,-20 8,-14 14,-8 20,-8"/>
</g>
<g id="clust2" class="cluster">
<title>cluster_saltproc__app</title>
<path fill="#808080" fill-opacity="0.094118" stroke="black" d="M172,-16C172,-16 848,-16 848,-16 854,-16 860,-22 860,-28 860,-28 860,-223 860,-223 860,-229 854,-235 848,-235 848,-235 172,-235 172,-235 166,-235 160,-229 160,-223 160,-223 160,-28 160,-28 160,-22 166,-16 172,-16"/>
<text text-anchor="middle" x="510" y="-219.8" font-family="Times,serif" font-size="14.00">saltproc.app</text>
</g>
<!-- saltproc__app -->
<g id="node1" class="node">
<title>saltproc__app</title>
<ellipse fill="#ffffff" fill-opacity="0.698039" stroke="black" cx="84" cy="-186" rx="68.49" ry="18"/>
<text text-anchor="middle" x="84" y="-182.3" font-family="Times,serif" font-size="14.00" fill="#000000">saltproc.app</text>
</g>
<!-- saltproc__app__parse_arguments -->
<g id="node2" class="node">
<title>saltproc__app__parse_arguments</title>
<ellipse fill="#ff9999" fill-opacity="0.698039" stroke="black" cx="259" cy="-114" rx="90.98" ry="18"/>
<text text-anchor="middle" x="259" y="-110.3" font-family="Times,serif" font-size="14.00" fill="#000000">parse_arguments</text>
</g>
<!-- saltproc__app__read_dot -->
<g id="node3" class="node">
<title>saltproc__app__read_dot</title>
<ellipse fill="#ff9999" fill-opacity="0.698039" stroke="black" cx="509" cy="-42" rx="51.19" ry="18"/>
<text text-anchor="middle" x="509" y="-38.3" font-family="Times,serif" font-size="14.00" fill="#000000">read_dot</text>
</g>
<!-- saltproc__app__read_feeds_from_input -->
<g id="node4" class="node">
<title>saltproc__app__read_feeds_from_input</title>
<ellipse fill="#ff9999" fill-opacity="0.698039" stroke="black" cx="323" cy="-42" rx="116.18" ry="18"/>
<text text-anchor="middle" x="323" y="-38.3" font-family="Times,serif" font-size="14.00" fill="#000000">read_feeds_from_input</text>
</g>
<!-- saltproc__app__read_main_input -->
<g id="node5" class="node">
<title>saltproc__app__read_main_input</title>
<ellipse fill="#ff9999" fill-opacity="0.698039" stroke="black" cx="456" cy="-114" rx="87.99" ry="18"/>
<text text-anchor="middle" x="456" y="-110.3" font-family="Times,serif" font-size="14.00" fill="#000000">read_main_input</text>
</g>
<!-- saltproc__app__read_processes_from_input -->
<g id="node6" class="node">
<title>saltproc__app__read_processes_from_input</title>
<ellipse fill="#ff9999" fill-opacity="0.698039" stroke="black" cx="715" cy="-42" rx="137.28" ry="18"/>
<text text-anchor="middle" x="715" y="-38.3" font-family="Times,serif" font-size="14.00" fill="#000000">read_processes_from_input</text>
</g>
<!-- saltproc__app__refill -->
<g id="node7" class="node">
<title>saltproc__app__refill</title>
<ellipse fill="#ff9999" fill-opacity="0.698039" stroke="black" cx="594" cy="-114" rx="32.49" ry="18"/>
<text text-anchor="middle" x="594" y="-110.3" font-family="Times,serif" font-size="14.00" fill="#000000">refill</text>
</g>
<!-- saltproc__app__refill&#45;&gt;saltproc__app__read_feeds_from_input -->
<g id="edge3" class="edge">
<title>saltproc__app__refill&#45;&gt;saltproc__app__read_feeds_from_input</title>
<path fill="none" stroke="#000000" d="M569.53,-102.08C564.15,-99.89 558.43,-97.74 553,-96 504.38,-80.44 448.61,-67.47 404.17,-58.26"/>
<polygon fill="#000000" stroke="#000000" points="404.79,-54.81 394.29,-56.23 403.38,-61.67 404.79,-54.81"/>
</g>
<!-- saltproc__app__reprocessing -->
<g id="node8" class="node">
<title>saltproc__app__reprocessing</title>
<ellipse fill="#ff9999" fill-opacity="0.698039" stroke="black" cx="715" cy="-114" rx="70.69" ry="18"/>
<text text-anchor="middle" x="715" y="-110.3" font-family="Times,serif" font-size="14.00" fill="#000000">reprocessing</text>
</g>
<!-- saltproc__app__reprocessing&#45;&gt;saltproc__app__read_dot -->
<g id="edge2" class="edge">
<title>saltproc__app__reprocessing&#45;&gt;saltproc__app__read_dot</title>
<path fill="none" stroke="#000000" d="M674.3,-99.17C639.68,-87.41 590.02,-70.53 554.18,-58.35"/>
<polygon fill="#000000" stroke="#000000" points="555.06,-54.95 544.46,-55.05 552.8,-61.58 555.06,-54.95"/>
</g>
<!-- saltproc__app__reprocessing&#45;&gt;saltproc__app__read_processes_from_input -->
<g id="edge1" class="edge">
<title>saltproc__app__reprocessing&#45;&gt;saltproc__app__read_processes_from_input</title>
<path fill="none" stroke="#000000" d="M715,-95.7C715,-87.98 715,-78.71 715,-70.11"/>
<polygon fill="#000000" stroke="#000000" points="718.5,-70.1 715,-60.1 711.5,-70.1 718.5,-70.1"/>
</g>
<!-- saltproc__app__run -->
<g id="node9" class="node">
<title>saltproc__app__run</title>
<ellipse fill="#ff9999" fill-opacity="0.698039" stroke="black" cx="525" cy="-186" rx="27" ry="18"/>
<text text-anchor="middle" x="525" y="-182.3" font-family="Times,serif" font-size="14.00" fill="#000000">run</text>
</g>
<!-- saltproc__app__run&#45;&gt;saltproc__app__parse_arguments -->
<g id="edge5" class="edge">
<title>saltproc__app__run&#45;&gt;saltproc__app__parse_arguments</title>
<path fill="none" stroke="#000000" d="M505.72,-173.35C501.92,-171.37 497.9,-169.48 494,-168 464.76,-156.94 389.5,-140.72 331.97,-129.14"/>
<polygon fill="#000000" stroke="#000000" points="332.3,-125.63 321.81,-127.1 330.93,-132.5 332.3,-125.63"/>
</g>
<!-- saltproc__app__run&#45;&gt;saltproc__app__read_main_input -->
<g id="edge4" class="edge">
<title>saltproc__app__run&#45;&gt;saltproc__app__read_main_input</title>
<path fill="none" stroke="#000000" d="M510.7,-170.5C501.75,-161.41 489.98,-149.48 479.66,-139"/>
<polygon fill="#000000" stroke="#000000" points="481.97,-136.36 472.46,-131.7 476.99,-141.28 481.97,-136.36"/>
</g>
<!-- saltproc__app__run&#45;&gt;saltproc__app__refill -->
<g id="edge6" class="edge">
<title>saltproc__app__run&#45;&gt;saltproc__app__refill</title>
<path fill="none" stroke="#000000" d="M539.3,-170.5C548.66,-161 561.09,-148.38 571.74,-137.58"/>
<polygon fill="#000000" stroke="#000000" points="574.24,-140.04 578.76,-130.46 569.25,-135.12 574.24,-140.04"/>
</g>
<!-- saltproc__app__run&#45;&gt;saltproc__app__reprocessing -->
<g id="edge7" class="edge">
<title>saltproc__app__run&#45;&gt;saltproc__app__reprocessing</title>
<path fill="none" stroke="#000000" d="M548.3,-176.42C577.59,-165.63 628.62,-146.82 666.53,-132.86"/>
<polygon fill="#000000" stroke="#000000" points="668.18,-135.98 676.35,-129.24 665.76,-129.41 668.18,-135.98"/>
</g>
</g>
</svg>
