<?xml version="1.0" encoding="UTF-8" standalone="no"?>
<!DOCTYPE svg PUBLIC "-//W3C//DTD SVG 1.1//EN"
 "http://www.w3.org/Graphics/SVG/1.1/DTD/svg11.dtd">
<!-- Generated by graphviz version 2.50.0 (20220117.2223)
 -->
<!-- Title: G Pages: 1 -->
<svg width="2686pt" height="334pt"
 viewBox="0.00 0.00 2686.00 334.00" xmlns="http://www.w3.org/2000/svg" xmlns:xlink="http://www.w3.org/1999/xlink">
<g id="graph0" class="graph" transform="scale(1 1) rotate(0) translate(4 330)">
<title>G</title>
<polygon fill="white" stroke="transparent" points="-4,4 -4,-330 2682,-330 2682,4 -4,4"/>
<g id="clust1" class="cluster">
<title>cluster_G</title>
<path fill="#808080" fill-opacity="0.094118" stroke="black" d="M20,-8C20,-8 2658,-8 2658,-8 2664,-8 2670,-14 2670,-20 2670,-20 2670,-306 2670,-306 2670,-312 2664,-318 2658,-318 2658,-318 20,-318 20,-318 14,-318 8,-312 8,-306 8,-306 8,-20 8,-20 8,-14 14,-8 20,-8"/>
</g>
<g id="clust2" class="cluster">
<title>cluster_saltproc__depcode</title>
<path fill="#808080" fill-opacity="0.094118" stroke="black" d="M2482,-160C2482,-160 2650,-160 2650,-160 2656,-160 2662,-166 2662,-172 2662,-172 2662,-298 2662,-298 2662,-304 2656,-310 2650,-310 2650,-310 2482,-310 2482,-310 2476,-310 2470,-304 2470,-298 2470,-298 2470,-172 2470,-172 2470,-166 2476,-160 2482,-160"/>
<text text-anchor="middle" x="2566" y="-294.8" font-family="Times,serif" font-size="14.00">saltproc.depcode</text>
</g>
<g id="clust3" class="cluster">
<title>cluster_saltproc__depcode__Depcode</title>
<path fill="#808080" fill-opacity="0.094118" stroke="black" d="M1628,-160C1628,-160 2450,-160 2450,-160 2456,-160 2462,-166 2462,-172 2462,-172 2462,-223 2462,-223 2462,-229 2456,-235 2450,-235 2450,-235 1628,-235 1628,-235 1622,-235 1616,-229 1616,-223 1616,-223 1616,-172 1616,-172 1616,-166 1622,-160 1628,-160"/>
<text text-anchor="middle" x="2039" y="-219.8" font-family="Times,serif" font-size="14.00">saltproc.depcode.Depcode</text>
</g>
<g id="clust4" class="cluster">
<title>cluster_saltproc__depcode__DepcodeSerpent</title>
<path fill="#808080" fill-opacity="0.094118" stroke="black" d="M216,-16C216,-16 1596,-16 1596,-16 1602,-16 1608,-22 1608,-28 1608,-28 1608,-298 1608,-298 1608,-304 1602,-310 1596,-310 1596,-310 216,-310 216,-310 210,-310 204,-304 204,-298 204,-298 204,-28 204,-28 204,-22 210,-16 216,-16"/>
<text text-anchor="middle" x="906" y="-294.8" font-family="Times,serif" font-size="14.00">saltproc.depcode.DepcodeSerpent</text>
</g>
<!-- saltproc__depcode -->
<g id="node1" class="node">
<title>saltproc__depcode</title>
<ellipse fill="#ffffff" fill-opacity="0.698039" stroke="black" cx="106" cy="-261" rx="89.88" ry="18"/>
<text text-anchor="middle" x="106" y="-257.3" font-family="Times,serif" font-size="14.00" fill="#000000">saltproc.depcode</text>
</g>
<!-- saltproc__depcode__Depcode -->
<g id="node2" class="node">
<title>saltproc__depcode__Depcode</title>
<ellipse fill="#ff9999" fill-opacity="0.698039" stroke="black" cx="2566" cy="-186" rx="50.89" ry="18"/>
<text text-anchor="middle" x="2566" y="-182.3" font-family="Times,serif" font-size="14.00" fill="#000000">Depcode</text>
</g>
<!-- saltproc__depcode__DepcodeSerpent -->
<g id="node3" class="node">
<title>saltproc__depcode__DepcodeSerpent</title>
<ellipse fill="#ff9999" fill-opacity="0.698039" stroke="black" cx="2566" cy="-261" rx="87.99" ry="18"/>
<text text-anchor="middle" x="2566" y="-257.3" font-family="Times,serif" font-size="14.00" fill="#000000">DepcodeSerpent</text>
</g>
<!-- saltproc__depcode__DepcodeSerpent&#45;&gt;saltproc__depcode__Depcode -->
<g id="edge1" class="edge">
<title>saltproc__depcode__DepcodeSerpent&#45;&gt;saltproc__depcode__Depcode</title>
<path fill="none" stroke="#000000" d="M2566,-242.7C2566,-234.25 2566,-223.87 2566,-214.37"/>
<polygon fill="#000000" stroke="#000000" points="2569.5,-214.18 2566,-204.18 2562.5,-214.18 2569.5,-214.18"/>
</g>
<!-- saltproc__depcode__Depcode____init__ -->
<g id="node4" class="node">
<title>saltproc__depcode__Depcode____init__</title>
<ellipse fill="#ff6565" fill-opacity="0.698039" stroke="black" cx="2410" cy="-186" rx="44.39" ry="18"/>
<text text-anchor="middle" x="2410" y="-182.3" font-family="Times,serif" font-size="14.00" fill="#000000">__init__</text>
</g>
<!-- saltproc__depcode__Depcode__read_dep_comp -->
<g id="node5" class="node">
<title>saltproc__depcode__Depcode__read_dep_comp</title>
<ellipse fill="#ff6565" fill-opacity="0.698039" stroke="black" cx="2265" cy="-186" rx="82.59" ry="18"/>
<text text-anchor="middle" x="2265" y="-182.3" font-family="Times,serif" font-size="14.00" fill="#000000">read_dep_comp</text>
</g>
<!-- saltproc__depcode__Depcode__run_depcode -->
<g id="node6" class="node">
<title>saltproc__depcode__Depcode__run_depcode</title>
<ellipse fill="#ff6565" fill-opacity="0.698039" stroke="black" cx="2095" cy="-186" rx="69.59" ry="18"/>
<text text-anchor="middle" x="2095" y="-182.3" font-family="Times,serif" font-size="14.00" fill="#000000">run_depcode</text>
</g>
<!-- saltproc__depcode__Depcode__write_depcode_input -->
<g id="node7" class="node">
<title>saltproc__depcode__Depcode__write_depcode_input</title>
<ellipse fill="#ff6565" fill-opacity="0.698039" stroke="black" cx="1901" cy="-186" rx="106.68" ry="18"/>
<text text-anchor="middle" x="1901" y="-182.3" font-family="Times,serif" font-size="14.00" fill="#000000">write_depcode_input</text>
</g>
<!-- saltproc__depcode__Depcode__write_mat_file -->
<g id="node8" class="node">
<title>saltproc__depcode__Depcode__write_mat_file</title>
<ellipse fill="#ff6565" fill-opacity="0.698039" stroke="black" cx="1700" cy="-186" rx="76.09" ry="18"/>
<text text-anchor="middle" x="1700" y="-182.3" font-family="Times,serif" font-size="14.00" fill="#000000">write_mat_file</text>
</g>
<!-- saltproc__depcode__DepcodeSerpent____init__ -->
<g id="node9" class="node">
<title>saltproc__depcode__DepcodeSerpent____init__</title>
<ellipse fill="#ff6565" fill-opacity="0.698039" stroke="black" cx="1556" cy="-261" rx="44.39" ry="18"/>
<text text-anchor="middle" x="1556" y="-257.3" font-family="Times,serif" font-size="14.00" fill="#000000">__init__</text>
</g>
<!-- saltproc__depcode__DepcodeSerpent____init__&#45;&gt;saltproc__depcode__Depcode____init__ -->
<g id="edge2" class="edge">
<title>saltproc__depcode__DepcodeSerpent____init__&#45;&gt;saltproc__depcode__Depcode____init__</title>
<path fill="none" stroke="#000000" d="M1600.41,-260.4C1758.32,-261.56 2286.89,-263.3 2357,-235 2369.59,-229.92 2381.1,-220.42 2390.15,-211.2"/>
<polygon fill="#000000" stroke="#000000" points="2392.93,-213.35 2397.14,-203.63 2387.79,-208.6 2392.93,-213.35"/>
</g>
<!-- saltproc__depcode__DepcodeSerpent__change_sim_par -->
<g id="node10" class="node">
<title>saltproc__depcode__DepcodeSerpent__change_sim_par</title>
<ellipse fill="#ff6565" fill-opacity="0.698039" stroke="black" cx="297" cy="-186" rx="85.29" ry="18"/>
<text text-anchor="middle" x="297" y="-182.3" font-family="Times,serif" font-size="14.00" fill="#000000">change_sim_par</text>
</g>
<!-- saltproc__depcode__DepcodeSerpent__create_iter_matfile -->
<g id="node11" class="node">
<title>saltproc__depcode__DepcodeSerpent__create_iter_matfile</title>
<ellipse fill="#ff6565" fill-opacity="0.698039" stroke="black" cx="498" cy="-186" rx="97.48" ry="18"/>
<text text-anchor="middle" x="498" y="-182.3" font-family="Times,serif" font-size="14.00" fill="#000000">create_iter_matfile</text>
</g>
<!-- saltproc__depcode__DepcodeSerpent__get_nuc_name -->
<g id="node12" class="node">
<title>saltproc__depcode__DepcodeSerpent__get_nuc_name</title>
<ellipse fill="#ff6565" fill-opacity="0.698039" stroke="black" cx="1521" cy="-114" rx="76.89" ry="18"/>
<text text-anchor="middle" x="1521" y="-110.3" font-family="Times,serif" font-size="14.00" fill="#000000">get_nuc_name</text>
</g>
<!-- saltproc__depcode__DepcodeSerpent__sss_meta_zzz -->
<g id="node21" class="node">
<title>saltproc__depcode__DepcodeSerpent__sss_meta_zzz</title>
<ellipse fill="#ff6565" fill-opacity="0.698039" stroke="black" cx="1521" cy="-42" rx="72.29" ry="18"/>
<text text-anchor="middle" x="1521" y="-38.3" font-family="Times,serif" font-size="14.00" fill="#000000">sss_meta_zzz</text>
</g>
<!-- saltproc__depcode__DepcodeSerpent__get_nuc_name&#45;&gt;saltproc__depcode__DepcodeSerpent__sss_meta_zzz -->
<g id="edge3" class="edge">
<title>saltproc__depcode__DepcodeSerpent__get_nuc_name&#45;&gt;saltproc__depcode__DepcodeSerpent__sss_meta_zzz</title>
<path fill="none" stroke="#000000" d="M1521,-95.7C1521,-87.98 1521,-78.71 1521,-70.11"/>
<polygon fill="#000000" stroke="#000000" points="1524.5,-70.1 1521,-60.1 1517.5,-70.1 1524.5,-70.1"/>
</g>
<!-- saltproc__depcode__DepcodeSerpent__get_tra_or_dec -->
<g id="node13" class="node">
<title>saltproc__depcode__DepcodeSerpent__get_tra_or_dec</title>
<ellipse fill="#ff6565" fill-opacity="0.698039" stroke="black" cx="1521" cy="-186" rx="78.79" ry="18"/>
<text text-anchor="middle" x="1521" y="-182.3" font-family="Times,serif" font-size="14.00" fill="#000000">get_tra_or_dec</text>
</g>
<!-- saltproc__depcode__DepcodeSerpent__get_tra_or_dec&#45;&gt;saltproc__depcode__DepcodeSerpent__get_nuc_name -->
<g id="edge4" class="edge">
<title>saltproc__depcode__DepcodeSerpent__get_tra_or_dec&#45;&gt;saltproc__depcode__DepcodeSerpent__get_nuc_name</title>
<path fill="none" stroke="#000000" d="M1521,-167.7C1521,-159.98 1521,-150.71 1521,-142.11"/>
<polygon fill="#000000" stroke="#000000" points="1524.5,-142.1 1521,-132.1 1517.5,-142.1 1524.5,-142.1"/>
</g>
<!-- saltproc__depcode__DepcodeSerpent__insert_path_to_geometry -->
<g id="node14" class="node">
<title>saltproc__depcode__DepcodeSerpent__insert_path_to_geometry</title>
<ellipse fill="#ff6565" fill-opacity="0.698039" stroke="black" cx="740" cy="-186" rx="126.18" ry="18"/>
<text text-anchor="middle" x="740" y="-182.3" font-family="Times,serif" font-size="14.00" fill="#000000">insert_path_to_geometry</text>
</g>
<!-- saltproc__depcode__DepcodeSerpent__read_dep_comp -->
<g id="node15" class="node">
<title>saltproc__depcode__DepcodeSerpent__read_dep_comp</title>
<ellipse fill="#ff6565" fill-opacity="0.698039" stroke="black" cx="1411" cy="-261" rx="82.59" ry="18"/>
<text text-anchor="middle" x="1411" y="-257.3" font-family="Times,serif" font-size="14.00" fill="#000000">read_dep_comp</text>
</g>
<!-- saltproc__depcode__DepcodeSerpent__read_dep_comp&#45;&gt;saltproc__depcode__DepcodeSerpent__get_tra_or_dec -->
<g id="edge5" class="edge">
<title>saltproc__depcode__DepcodeSerpent__read_dep_comp&#45;&gt;saltproc__depcode__DepcodeSerpent__get_tra_or_dec</title>
<path fill="none" stroke="#000000" d="M1435.41,-243.8C1450.94,-233.5 1471.23,-220.03 1488.15,-208.8"/>
<polygon fill="#000000" stroke="#000000" points="1490.26,-211.6 1496.66,-203.16 1486.39,-205.77 1490.26,-211.6"/>
</g>
<!-- saltproc__depcode__DepcodeSerpent__read_depcode_info -->
<g id="node16" class="node">
<title>saltproc__depcode__DepcodeSerpent__read_depcode_info</title>
<ellipse fill="#ff6565" fill-opacity="0.698039" stroke="black" cx="1214" cy="-261" rx="96.68" ry="18"/>
<text text-anchor="middle" x="1214" y="-257.3" font-family="Times,serif" font-size="14.00" fill="#000000">read_depcode_info</text>
</g>
<!-- saltproc__depcode__DepcodeSerpent__read_depcode_step_param -->
<g id="node17" class="node">
<title>saltproc__depcode__DepcodeSerpent__read_depcode_step_param</title>
<ellipse fill="#ff6565" fill-opacity="0.698039" stroke="black" cx="966" cy="-261" rx="133.48" ry="18"/>
<text text-anchor="middle" x="966" y="-257.3" font-family="Times,serif" font-size="14.00" fill="#000000">read_depcode_step_param</text>
</g>
<!-- saltproc__depcode__DepcodeSerpent__read_depcode_template -->
<g id="node18" class="node">
<title>saltproc__depcode__DepcodeSerpent__read_depcode_template</title>
<ellipse fill="#ff6565" fill-opacity="0.698039" stroke="black" cx="1004" cy="-186" rx="120.48" ry="18"/>
<text text-anchor="middle" x="1004" y="-182.3" font-family="Times,serif" font-size="14.00" fill="#000000">read_depcode_template</text>
</g>
<!-- saltproc__depcode__DepcodeSerpent__replace_burnup_parameters -->
<g id="node19" class="node">
<title>saltproc__depcode__DepcodeSerpent__replace_burnup_parameters</title>
<ellipse fill="#ff6565" fill-opacity="0.698039" stroke="black" cx="1283" cy="-186" rx="141.07" ry="18"/>
<text text-anchor="middle" x="1283" y="-182.3" font-family="Times,serif" font-size="14.00" fill="#000000">replace_burnup_parameters</text>
</g>
<!-- saltproc__depcode__DepcodeSerpent__run_depcode -->
<g id="node20" class="node">
<title>saltproc__depcode__DepcodeSerpent__run_depcode</title>
<ellipse fill="#ff6565" fill-opacity="0.698039" stroke="black" cx="745" cy="-261" rx="69.59" ry="18"/>
<text text-anchor="middle" x="745" y="-257.3" font-family="Times,serif" font-size="14.00" fill="#000000">run_depcode</text>
</g>
<!-- saltproc__depcode__DepcodeSerpent__write_depcode_input -->
<g id="node22" class="node">
<title>saltproc__depcode__DepcodeSerpent__write_depcode_input</title>
<ellipse fill="#ff6565" fill-opacity="0.698039" stroke="black" cx="551" cy="-261" rx="106.68" ry="18"/>
<text text-anchor="middle" x="551" y="-257.3" font-family="Times,serif" font-size="14.00" fill="#000000">write_depcode_input</text>
</g>
<!-- saltproc__depcode__DepcodeSerpent__write_depcode_input&#45;&gt;saltproc__depcode__DepcodeSerpent__change_sim_par -->
<g id="edge9" class="edge">
<title>saltproc__depcode__DepcodeSerpent__write_depcode_input&#45;&gt;saltproc__depcode__DepcodeSerpent__change_sim_par</title>
<path fill="none" stroke="#000000" d="M461.96,-251C438.84,-247.31 414.21,-242.16 392,-235 371.52,-228.4 350.02,-217.87 332.66,-208.36"/>
<polygon fill="#000000" stroke="#000000" points="333.91,-205.04 323.48,-203.21 330.49,-211.15 333.91,-205.04"/>
</g>
<!-- saltproc__depcode__DepcodeSerpent__write_depcode_input&#45;&gt;saltproc__depcode__DepcodeSerpent__create_iter_matfile -->
<g id="edge8" class="edge">
<title>saltproc__depcode__DepcodeSerpent__write_depcode_input&#45;&gt;saltproc__depcode__DepcodeSerpent__create_iter_matfile</title>
<path fill="none" stroke="#000000" d="M538.71,-243.07C532.07,-233.92 523.73,-222.45 516.34,-212.26"/>
<polygon fill="#000000" stroke="#000000" points="519.12,-210.13 510.41,-204.09 513.45,-214.24 519.12,-210.13"/>
</g>
<!-- saltproc__depcode__DepcodeSerpent__write_depcode_input&#45;&gt;saltproc__depcode__DepcodeSerpent__insert_path_to_geometry -->
<g id="edge10" class="edge">
<title>saltproc__depcode__DepcodeSerpent__write_depcode_input&#45;&gt;saltproc__depcode__DepcodeSerpent__insert_path_to_geometry</title>
<path fill="none" stroke="#000000" d="M591.55,-244.34C620.03,-233.34 658.34,-218.54 688.91,-206.73"/>
<polygon fill="#000000" stroke="#000000" points="690.48,-209.88 698.54,-203.01 687.95,-203.35 690.48,-209.88"/>
</g>
<!-- saltproc__depcode__DepcodeSerpent__write_depcode_input&#45;&gt;saltproc__depcode__DepcodeSerpent__read_depcode_template -->
<g id="edge7" class="edge">
<title>saltproc__depcode__DepcodeSerpent__write_depcode_input&#45;&gt;saltproc__depcode__DepcodeSerpent__read_depcode_template</title>
<path fill="none" stroke="#000000" d="M624.48,-247.93C638.24,-246.01 652.54,-244.25 666,-243 712.28,-238.71 829.42,-244.11 875,-235 904.17,-229.17 935.47,-217.66 959.93,-207.38"/>
<polygon fill="#000000" stroke="#000000" points="961.48,-210.52 969.29,-203.36 958.72,-204.09 961.48,-210.52"/>
</g>
<!-- saltproc__depcode__DepcodeSerpent__write_depcode_input&#45;&gt;saltproc__depcode__DepcodeSerpent__replace_burnup_parameters -->
<g id="edge6" class="edge">
<title>saltproc__depcode__DepcodeSerpent__write_depcode_input&#45;&gt;saltproc__depcode__DepcodeSerpent__replace_burnup_parameters</title>
<path fill="none" stroke="#000000" d="M623.84,-247.78C637.8,-245.85 652.32,-244.12 666,-243 769.44,-234.5 1030.59,-251.89 1133,-235 1167.42,-229.32 1204.78,-217.39 1233.61,-206.83"/>
<polygon fill="#000000" stroke="#000000" points="1234.9,-210.09 1243.05,-203.32 1232.45,-203.53 1234.9,-210.09"/>
</g>
<!-- saltproc__depcode__DepcodeSerpent__write_mat_file -->
<g id="node23" class="node">
<title>saltproc__depcode__DepcodeSerpent__write_mat_file</title>
<ellipse fill="#ff6565" fill-opacity="0.698039" stroke="black" cx="320" cy="-261" rx="76.09" ry="18"/>
<text text-anchor="middle" x="320" y="-257.3" font-family="Times,serif" font-size="14.00" fill="#000000">write_mat_file</text>
</g>
</g>
</svg>
