<?xml version="1.0" encoding="UTF-8" standalone="no"?>
<!DOCTYPE svg PUBLIC "-//W3C//DTD SVG 1.1//EN"
 "http://www.w3.org/Graphics/SVG/1.1/DTD/svg11.dtd">
<!-- Generated by graphviz version 2.50.0 (20220117.2223)
 -->
<!-- Title: G Pages: 1 -->
<svg width="3679pt" height="334pt"
 viewBox="0.00 0.00 3679.00 334.00" xmlns="http://www.w3.org/2000/svg" xmlns:xlink="http://www.w3.org/1999/xlink">
<g id="graph0" class="graph" transform="scale(1 1) rotate(0) translate(4 330)">
<title>G</title>
<polygon fill="white" stroke="transparent" points="-4,4 -4,-330 3675,-330 3675,4 -4,4"/>
<g id="clust1" class="cluster">
<title>cluster_G</title>
<path fill="#808080" fill-opacity="0.094118" stroke="black" d="M20,-8C20,-8 3651,-8 3651,-8 3657,-8 3663,-14 3663,-20 3663,-20 3663,-306 3663,-306 3663,-312 3657,-318 3651,-318 3651,-318 20,-318 20,-318 14,-318 8,-312 8,-306 8,-306 8,-20 8,-20 8,-14 14,-8 20,-8"/>
</g>
<g id="clust2" class="cluster">
<title>cluster_saltproc__depcode</title>
<path fill="#808080" fill-opacity="0.094118" stroke="black" d="M3475,-160C3475,-160 3643,-160 3643,-160 3649,-160 3655,-166 3655,-172 3655,-172 3655,-298 3655,-298 3655,-304 3649,-310 3643,-310 3643,-310 3475,-310 3475,-310 3469,-310 3463,-304 3463,-298 3463,-298 3463,-172 3463,-172 3463,-166 3469,-160 3475,-160"/>
<text text-anchor="middle" x="3559" y="-294.8" font-family="Times,serif" font-size="14.00">saltproc.depcode</text>
</g>
<g id="clust3" class="cluster">
<title>cluster_saltproc__depcode__Depcode</title>
<path fill="#808080" fill-opacity="0.094118" stroke="black" d="M1850,-160C1850,-160 3443,-160 3443,-160 3449,-160 3455,-166 3455,-172 3455,-172 3455,-223 3455,-223 3455,-229 3449,-235 3443,-235 3443,-235 1850,-235 1850,-235 1844,-235 1838,-229 1838,-223 1838,-223 1838,-172 1838,-172 1838,-166 1844,-160 1850,-160"/>
<text text-anchor="middle" x="2646.5" y="-219.8" font-family="Times,serif" font-size="14.00">saltproc.depcode.Depcode</text>
</g>
<g id="clust4" class="cluster">
<title>cluster_saltproc__depcode__DepcodeSerpent</title>
<path fill="#808080" fill-opacity="0.094118" stroke="black" d="M216,-16C216,-16 1818,-16 1818,-16 1824,-16 1830,-22 1830,-28 1830,-28 1830,-298 1830,-298 1830,-304 1824,-310 1818,-310 1818,-310 216,-310 216,-310 210,-310 204,-304 204,-298 204,-298 204,-28 204,-28 204,-22 210,-16 216,-16"/>
<text text-anchor="middle" x="1017" y="-294.8" font-family="Times,serif" font-size="14.00">saltproc.depcode.DepcodeSerpent</text>
</g>
<!-- saltproc__depcode -->
<g id="node1" class="node">
<title>saltproc__depcode</title>
<ellipse fill="#ffffff" fill-opacity="0.698039" stroke="black" cx="106" cy="-261" rx="89.88" ry="18"/>
<text text-anchor="middle" x="106" y="-257.3" font-family="Times,serif" font-size="14.00" fill="#000000">saltproc.depcode</text>
</g>
<!-- saltproc__depcode__Depcode -->
<g id="node2" class="node">
<title>saltproc__depcode__Depcode</title>
<ellipse fill="#ff9999" fill-opacity="0.698039" stroke="black" cx="3559" cy="-186" rx="50.89" ry="18"/>
<text text-anchor="middle" x="3559" y="-182.3" font-family="Times,serif" font-size="14.00" fill="#000000">Depcode</text>
</g>
<!-- saltproc__depcode__DepcodeSerpent -->
<g id="node3" class="node">
<title>saltproc__depcode__DepcodeSerpent</title>
<ellipse fill="#ff9999" fill-opacity="0.698039" stroke="black" cx="3559" cy="-261" rx="87.99" ry="18"/>
<text text-anchor="middle" x="3559" y="-257.3" font-family="Times,serif" font-size="14.00" fill="#000000">DepcodeSerpent</text>
</g>
<!-- saltproc__depcode__DepcodeSerpent&#45;&gt;saltproc__depcode__Depcode -->
<g id="edge1" class="edge">
<title>saltproc__depcode__DepcodeSerpent&#45;&gt;saltproc__depcode__Depcode</title>
<path fill="none" stroke="#000000" d="M3559,-242.7C3559,-234.25 3559,-223.87 3559,-214.37"/>
<polygon fill="#000000" stroke="#000000" points="3562.5,-214.18 3559,-204.18 3555.5,-214.18 3562.5,-214.18"/>
</g>
<!-- saltproc__depcode__Depcode____init__ -->
<g id="node4" class="node">
<title>saltproc__depcode__Depcode____init__</title>
<ellipse fill="#ff6565" fill-opacity="0.698039" stroke="black" cx="3403" cy="-186" rx="44.39" ry="18"/>
<text text-anchor="middle" x="3403" y="-182.3" font-family="Times,serif" font-size="14.00" fill="#000000">__init__</text>
</g>
<!-- saltproc__depcode__Depcode__read_dep_comp -->
<g id="node5" class="node">
<title>saltproc__depcode__Depcode__read_dep_comp</title>
<ellipse fill="#ff6565" fill-opacity="0.698039" stroke="black" cx="3258" cy="-186" rx="82.59" ry="18"/>
<text text-anchor="middle" x="3258" y="-182.3" font-family="Times,serif" font-size="14.00" fill="#000000">read_dep_comp</text>
</g>
<!-- saltproc__depcode__Depcode__read_depcode_info -->
<g id="node6" class="node">
<title>saltproc__depcode__Depcode__read_depcode_info</title>
<ellipse fill="#ff6565" fill-opacity="0.698039" stroke="black" cx="3061" cy="-186" rx="96.68" ry="18"/>
<text text-anchor="middle" x="3061" y="-182.3" font-family="Times,serif" font-size="14.00" fill="#000000">read_depcode_info</text>
</g>
<!-- saltproc__depcode__Depcode__read_depcode_step_param -->
<g id="node7" class="node">
<title>saltproc__depcode__Depcode__read_depcode_step_param</title>
<ellipse fill="#ff6565" fill-opacity="0.698039" stroke="black" cx="2813" cy="-186" rx="133.48" ry="18"/>
<text text-anchor="middle" x="2813" y="-182.3" font-family="Times,serif" font-size="14.00" fill="#000000">read_depcode_step_param</text>
</g>
<!-- saltproc__depcode__Depcode__run_depcode -->
<g id="node8" class="node">
<title>saltproc__depcode__Depcode__run_depcode</title>
<ellipse fill="#ff6565" fill-opacity="0.698039" stroke="black" cx="2592" cy="-186" rx="69.59" ry="18"/>
<text text-anchor="middle" x="2592" y="-182.3" font-family="Times,serif" font-size="14.00" fill="#000000">run_depcode</text>
</g>
<!-- saltproc__depcode__Depcode__switch_to_next_geometry -->
<g id="node9" class="node">
<title>saltproc__depcode__Depcode__switch_to_next_geometry</title>
<ellipse fill="#ff6565" fill-opacity="0.698039" stroke="black" cx="2376" cy="-186" rx="128.08" ry="18"/>
<text text-anchor="middle" x="2376" y="-182.3" font-family="Times,serif" font-size="14.00" fill="#000000">switch_to_next_geometry</text>
</g>
<!-- saltproc__depcode__Depcode__write_depcode_input -->
<g id="node10" class="node">
<title>saltproc__depcode__Depcode__write_depcode_input</title>
<ellipse fill="#ff6565" fill-opacity="0.698039" stroke="black" cx="2123" cy="-186" rx="106.68" ry="18"/>
<text text-anchor="middle" x="2123" y="-182.3" font-family="Times,serif" font-size="14.00" fill="#000000">write_depcode_input</text>
</g>
<!-- saltproc__depcode__Depcode__write_mat_file -->
<g id="node11" class="node">
<title>saltproc__depcode__Depcode__write_mat_file</title>
<ellipse fill="#ff6565" fill-opacity="0.698039" stroke="black" cx="1922" cy="-186" rx="76.09" ry="18"/>
<text text-anchor="middle" x="1922" y="-182.3" font-family="Times,serif" font-size="14.00" fill="#000000">write_mat_file</text>
</g>
<!-- saltproc__depcode__DepcodeSerpent____init__ -->
<g id="node12" class="node">
<title>saltproc__depcode__DepcodeSerpent____init__</title>
<ellipse fill="#ff6565" fill-opacity="0.698039" stroke="black" cx="1778" cy="-261" rx="44.39" ry="18"/>
<text text-anchor="middle" x="1778" y="-257.3" font-family="Times,serif" font-size="14.00" fill="#000000">__init__</text>
</g>
<!-- saltproc__depcode__DepcodeSerpent____init__&#45;&gt;saltproc__depcode__Depcode____init__ -->
<g id="edge2" class="edge">
<title>saltproc__depcode__DepcodeSerpent____init__&#45;&gt;saltproc__depcode__Depcode____init__</title>
<path fill="none" stroke="#000000" d="M1822.3,-260.17C2070.22,-261.04 3277.13,-263.76 3350,-235 3362.63,-230.02 3374.14,-220.53 3383.19,-211.3"/>
<polygon fill="#000000" stroke="#000000" points="3385.98,-213.43 3390.17,-203.7 3380.83,-208.69 3385.98,-213.43"/>
</g>
<!-- saltproc__depcode__DepcodeSerpent__change_sim_par -->
<g id="node13" class="node">
<title>saltproc__depcode__DepcodeSerpent__change_sim_par</title>
<ellipse fill="#ff6565" fill-opacity="0.698039" stroke="black" cx="297" cy="-186" rx="85.29" ry="18"/>
<text text-anchor="middle" x="297" y="-182.3" font-family="Times,serif" font-size="14.00" fill="#000000">change_sim_par</text>
</g>
<!-- saltproc__depcode__DepcodeSerpent__convert_nuclide_name_serpent_to_zam -->
<g id="node14" class="node">
<title>saltproc__depcode__DepcodeSerpent__convert_nuclide_name_serpent_to_zam</title>
<ellipse fill="#ff6565" fill-opacity="0.698039" stroke="black" cx="1613" cy="-42" rx="190.37" ry="18"/>
<text text-anchor="middle" x="1613" y="-38.3" font-family="Times,serif" font-size="14.00" fill="#000000">convert_nuclide_name_serpent_to_zam</text>
</g>
<!-- saltproc__depcode__DepcodeSerpent__create_iter_matfile -->
<g id="node15" class="node">
<title>saltproc__depcode__DepcodeSerpent__create_iter_matfile</title>
<ellipse fill="#ff6565" fill-opacity="0.698039" stroke="black" cx="498" cy="-186" rx="97.48" ry="18"/>
<text text-anchor="middle" x="498" y="-182.3" font-family="Times,serif" font-size="14.00" fill="#000000">create_iter_matfile</text>
</g>
<!-- saltproc__depcode__DepcodeSerpent__create_nuclide_name_map_zam_to_serpent -->
<g id="node16" class="node">
<title>saltproc__depcode__DepcodeSerpent__create_nuclide_name_map_zam_to_serpent</title>
<ellipse fill="#ff6565" fill-opacity="0.698039" stroke="black" cx="1613" cy="-186" rx="209.06" ry="18"/>
<text text-anchor="middle" x="1613" y="-182.3" font-family="Times,serif" font-size="14.00" fill="#000000">create_nuclide_name_map_zam_to_serpent</text>
</g>
<!-- saltproc__depcode__DepcodeSerpent__get_nuc_name -->
<g id="node17" class="node">
<title>saltproc__depcode__DepcodeSerpent__get_nuc_name</title>
<ellipse fill="#ff6565" fill-opacity="0.698039" stroke="black" cx="1613" cy="-114" rx="76.89" ry="18"/>
<text text-anchor="middle" x="1613" y="-110.3" font-family="Times,serif" font-size="14.00" fill="#000000">get_nuc_name</text>
</g>
<!-- saltproc__depcode__DepcodeSerpent__create_nuclide_name_map_zam_to_serpent&#45;&gt;saltproc__depcode__DepcodeSerpent__get_nuc_name -->
<g id="edge4" class="edge">
<title>saltproc__depcode__DepcodeSerpent__create_nuclide_name_map_zam_to_serpent&#45;&gt;saltproc__depcode__DepcodeSerpent__get_nuc_name</title>
<path fill="none" stroke="#000000" d="M1613,-167.7C1613,-159.98 1613,-150.71 1613,-142.11"/>
<polygon fill="#000000" stroke="#000000" points="1616.5,-142.1 1613,-132.1 1609.5,-142.1 1616.5,-142.1"/>
</g>
<!-- saltproc__depcode__DepcodeSerpent__get_nuc_name&#45;&gt;saltproc__depcode__DepcodeSerpent__convert_nuclide_name_serpent_to_zam -->
<g id="edge3" class="edge">
<title>saltproc__depcode__DepcodeSerpent__get_nuc_name&#45;&gt;saltproc__depcode__DepcodeSerpent__convert_nuclide_name_serpent_to_zam</title>
<path fill="none" stroke="#000000" d="M1613,-95.7C1613,-87.98 1613,-78.71 1613,-70.11"/>
<polygon fill="#000000" stroke="#000000" points="1616.5,-70.1 1613,-60.1 1609.5,-70.1 1616.5,-70.1"/>
</g>
<!-- saltproc__depcode__DepcodeSerpent__insert_path_to_geometry -->
<g id="node18" class="node">
<title>saltproc__depcode__DepcodeSerpent__insert_path_to_geometry</title>
<ellipse fill="#ff6565" fill-opacity="0.698039" stroke="black" cx="740" cy="-186" rx="126.18" ry="18"/>
<text text-anchor="middle" x="740" y="-182.3" font-family="Times,serif" font-size="14.00" fill="#000000">insert_path_to_geometry</text>
</g>
<!-- saltproc__depcode__DepcodeSerpent__read_dep_comp -->
<g id="node19" class="node">
<title>saltproc__depcode__DepcodeSerpent__read_dep_comp</title>
<ellipse fill="#ff6565" fill-opacity="0.698039" stroke="black" cx="1633" cy="-261" rx="82.59" ry="18"/>
<text text-anchor="middle" x="1633" y="-257.3" font-family="Times,serif" font-size="14.00" fill="#000000">read_dep_comp</text>
</g>
<!-- saltproc__depcode__DepcodeSerpent__read_dep_comp&#45;&gt;saltproc__depcode__DepcodeSerpent__create_nuclide_name_map_zam_to_serpent -->
<g id="edge5" class="edge">
<title>saltproc__depcode__DepcodeSerpent__read_dep_comp&#45;&gt;saltproc__depcode__DepcodeSerpent__create_nuclide_name_map_zam_to_serpent</title>
<path fill="none" stroke="#000000" d="M1628.26,-242.7C1625.92,-234.15 1623.04,-223.65 1620.42,-214.07"/>
<polygon fill="#000000" stroke="#000000" points="1623.72,-212.9 1617.71,-204.18 1616.97,-214.75 1623.72,-212.9"/>
</g>
<!-- saltproc__depcode__DepcodeSerpent__read_depcode_info -->
<g id="node20" class="node">
<title>saltproc__depcode__DepcodeSerpent__read_depcode_info</title>
<ellipse fill="#ff6565" fill-opacity="0.698039" stroke="black" cx="1436" cy="-261" rx="96.68" ry="18"/>
<text text-anchor="middle" x="1436" y="-257.3" font-family="Times,serif" font-size="14.00" fill="#000000">read_depcode_info</text>
</g>
<!-- saltproc__depcode__DepcodeSerpent__read_depcode_step_param -->
<g id="node21" class="node">
<title>saltproc__depcode__DepcodeSerpent__read_depcode_step_param</title>
<ellipse fill="#ff6565" fill-opacity="0.698039" stroke="black" cx="1188" cy="-261" rx="133.48" ry="18"/>
<text text-anchor="middle" x="1188" y="-257.3" font-family="Times,serif" font-size="14.00" fill="#000000">read_depcode_step_param</text>
</g>
<!-- saltproc__depcode__DepcodeSerpent__read_plaintext_file -->
<g id="node22" class="node">
<title>saltproc__depcode__DepcodeSerpent__read_plaintext_file</title>
<ellipse fill="#ff6565" fill-opacity="0.698039" stroke="black" cx="980" cy="-186" rx="96.38" ry="18"/>
<text text-anchor="middle" x="980" y="-182.3" font-family="Times,serif" font-size="14.00" fill="#000000">read_plaintext_file</text>
</g>
<!-- saltproc__depcode__DepcodeSerpent__replace_burnup_parameters -->
<g id="node23" class="node">
<title>saltproc__depcode__DepcodeSerpent__replace_burnup_parameters</title>
<ellipse fill="#ff6565" fill-opacity="0.698039" stroke="black" cx="1235" cy="-186" rx="141.07" ry="18"/>
<text text-anchor="middle" x="1235" y="-182.3" font-family="Times,serif" font-size="14.00" fill="#000000">replace_burnup_parameters</text>
</g>
<!-- saltproc__depcode__DepcodeSerpent__run_depcode -->
<g id="node24" class="node">
<title>saltproc__depcode__DepcodeSerpent__run_depcode</title>
<ellipse fill="#ff6565" fill-opacity="0.698039" stroke="black" cx="967" cy="-261" rx="69.59" ry="18"/>
<text text-anchor="middle" x="967" y="-257.3" font-family="Times,serif" font-size="14.00" fill="#000000">run_depcode</text>
</g>
<!-- saltproc__depcode__DepcodeSerpent__switch_to_next_geometry -->
<g id="node25" class="node">
<title>saltproc__depcode__DepcodeSerpent__switch_to_next_geometry</title>
<ellipse fill="#ff6565" fill-opacity="0.698039" stroke="black" cx="751" cy="-261" rx="128.08" ry="18"/>
<text text-anchor="middle" x="751" y="-257.3" font-family="Times,serif" font-size="14.00" fill="#000000">switch_to_next_geometry</text>
</g>
<!-- saltproc__depcode__DepcodeSerpent__write_depcode_input -->
<g id="node26" class="node">
<title>saltproc__depcode__DepcodeSerpent__write_depcode_input</title>
<ellipse fill="#ff6565" fill-opacity="0.698039" stroke="black" cx="498" cy="-261" rx="106.68" ry="18"/>
<text text-anchor="middle" x="498" y="-257.3" font-family="Times,serif" font-size="14.00" fill="#000000">write_depcode_input</text>
</g>
<!-- saltproc__depcode__DepcodeSerpent__write_depcode_input&#45;&gt;saltproc__depcode__DepcodeSerpent__change_sim_par -->
<g id="edge8" class="edge">
<title>saltproc__depcode__DepcodeSerpent__write_depcode_input&#45;&gt;saltproc__depcode__DepcodeSerpent__change_sim_par</title>
<path fill="none" stroke="#000000" d="M431.42,-246.84C418.19,-243.52 404.52,-239.57 392,-235 372.08,-227.73 350.93,-217.34 333.66,-208.08"/>
<polygon fill="#000000" stroke="#000000" points="334.94,-204.79 324.49,-203.08 331.59,-210.94 334.94,-204.79"/>
</g>
<!-- saltproc__depcode__DepcodeSerpent__write_depcode_input&#45;&gt;saltproc__depcode__DepcodeSerpent__create_iter_matfile -->
<g id="edge10" class="edge">
<title>saltproc__depcode__DepcodeSerpent__write_depcode_input&#45;&gt;saltproc__depcode__DepcodeSerpent__create_iter_matfile</title>
<path fill="none" stroke="#000000" d="M498,-242.7C498,-234.25 498,-223.87 498,-214.37"/>
<polygon fill="#000000" stroke="#000000" points="501.5,-214.18 498,-204.18 494.5,-214.18 501.5,-214.18"/>
</g>
<!-- saltproc__depcode__DepcodeSerpent__write_depcode_input&#45;&gt;saltproc__depcode__DepcodeSerpent__insert_path_to_geometry -->
<g id="edge7" class="edge">
<title>saltproc__depcode__DepcodeSerpent__write_depcode_input&#45;&gt;saltproc__depcode__DepcodeSerpent__insert_path_to_geometry</title>
<path fill="none" stroke="#000000" d="M560.79,-246.37C575.07,-242.94 590.12,-239.07 604,-235 632.33,-226.68 663.42,-215.84 688.72,-206.57"/>
<polygon fill="#000000" stroke="#000000" points="689.94,-209.85 698.11,-203.1 687.52,-203.28 689.94,-209.85"/>
</g>
<!-- saltproc__depcode__DepcodeSerpent__write_depcode_input&#45;&gt;saltproc__depcode__DepcodeSerpent__read_plaintext_file -->
<g id="edge6" class="edge">
<title>saltproc__depcode__DepcodeSerpent__write_depcode_input&#45;&gt;saltproc__depcode__DepcodeSerpent__read_plaintext_file</title>
<path fill="none" stroke="#000000" d="M571.49,-247.93C585.57,-245.99 600.21,-244.22 614,-243 671.8,-237.9 818.5,-248.21 875,-235 898.76,-229.44 923.66,-218.32 943.25,-208.18"/>
<polygon fill="#000000" stroke="#000000" points="944.94,-211.24 952.13,-203.46 941.66,-205.06 944.94,-211.24"/>
</g>
<!-- saltproc__depcode__DepcodeSerpent__write_depcode_input&#45;&gt;saltproc__depcode__DepcodeSerpent__replace_burnup_parameters -->
<g id="edge9" class="edge">
<title>saltproc__depcode__DepcodeSerpent__write_depcode_input&#45;&gt;saltproc__depcode__DepcodeSerpent__replace_burnup_parameters</title>
<path fill="none" stroke="#000000" d="M571.16,-247.82C585.34,-245.87 600.1,-244.13 614,-243 718.34,-234.5 981.71,-252.02 1085,-235 1119.42,-229.33 1156.79,-217.39 1185.61,-206.84"/>
<polygon fill="#000000" stroke="#000000" points="1186.9,-210.09 1195.05,-203.32 1184.45,-203.53 1186.9,-210.09"/>
</g>
<!-- saltproc__depcode__DepcodeSerpent__write_mat_file -->
<g id="node27" class="node">
<title>saltproc__depcode__DepcodeSerpent__write_mat_file</title>
<ellipse fill="#ff6565" fill-opacity="0.698039" stroke="black" cx="293" cy="-261" rx="76.09" ry="18"/>
<text text-anchor="middle" x="293" y="-257.3" font-family="Times,serif" font-size="14.00" fill="#000000">write_mat_file</text>
</g>
</g>
</svg>
