<?xml version="1.0" encoding="UTF-8" standalone="no"?>
<!DOCTYPE svg PUBLIC "-//W3C//DTD SVG 1.1//EN"
 "http://www.w3.org/Graphics/SVG/1.1/DTD/svg11.dtd">
<!-- Generated by graphviz version 2.50.0 (20220117.2223)
 -->
<!-- Title: G Pages: 1 -->
<svg width="1135pt" height="331pt"
 viewBox="0.00 0.00 1135.00 331.00" xmlns="http://www.w3.org/2000/svg" xmlns:xlink="http://www.w3.org/1999/xlink">
<g id="graph0" class="graph" transform="scale(1 1) rotate(0) translate(4 327)">
<title>G</title>
<polygon fill="white" stroke="transparent" points="-4,4 -4,-327 1131,-327 1131,4 -4,4"/>
<g id="clust1" class="cluster">
<title>cluster_G</title>
<path fill="#808080" fill-opacity="0.094118" stroke="black" d="M20,-8C20,-8 1107,-8 1107,-8 1113,-8 1119,-14 1119,-20 1119,-20 1119,-303 1119,-303 1119,-309 1113,-315 1107,-315 1107,-315 20,-315 20,-315 14,-315 8,-309 8,-303 8,-303 8,-20 8,-20 8,-14 14,-8 20,-8"/>
</g>
<g id="clust2" class="cluster">
<title>cluster_saltproc__saltproc</title>
<path fill="#808080" fill-opacity="0.094118" stroke="black" d="M986,-232C986,-232 1099,-232 1099,-232 1105,-232 1111,-238 1111,-244 1111,-244 1111,-295 1111,-295 1111,-301 1105,-307 1099,-307 1099,-307 986,-307 986,-307 980,-307 974,-301 974,-295 974,-295 974,-244 974,-244 974,-238 980,-232 986,-232"/>
<text text-anchor="middle" x="1042.5" y="-291.8" font-family="Times,serif" font-size="14.00">saltproc.saltproc</text>
</g>
<g id="clust3" class="cluster">
<title>cluster_saltproc__saltproc__saltproc</title>
<path fill="#808080" fill-opacity="0.094118" stroke="black" d="M214,-16C214,-16 954,-16 954,-16 960,-16 966,-22 966,-28 966,-28 966,-295 966,-295 966,-301 960,-307 954,-307 954,-307 214,-307 214,-307 208,-307 202,-301 202,-295 202,-295 202,-28 202,-28 202,-22 208,-16 214,-16"/>
<text text-anchor="middle" x="584" y="-291.8" font-family="Times,serif" font-size="14.00">saltproc.saltproc.saltproc</text>
</g>
<!-- saltproc__saltproc -->
<g id="node1" class="node">
<title>saltproc__saltproc</title>
<ellipse fill="#ffffff" fill-opacity="0.698039" stroke="black" cx="105" cy="-258" rx="89.08" ry="18"/>
<text text-anchor="middle" x="105" y="-254.3" font-family="Times,serif" font-size="14.00" fill="#000000">saltproc.saltproc</text>
</g>
<!-- saltproc__saltproc__saltproc -->
<g id="node2" class="node">
<title>saltproc__saltproc__saltproc</title>
<ellipse fill="#ff9999" fill-opacity="0.698039" stroke="black" cx="1042" cy="-258" rx="48.19" ry="18"/>
<text text-anchor="middle" x="1042" y="-254.3" font-family="Times,serif" font-size="14.00" fill="#000000">saltproc</text>
</g>
<!-- saltproc__saltproc__saltproc____init__ -->
<g id="node3" class="node">
<title>saltproc__saltproc__saltproc____init__</title>
<ellipse fill="#ff6565" fill-opacity="0.698039" stroke="black" cx="894" cy="-258" rx="44.39" ry="18"/>
<text text-anchor="middle" x="894" y="-254.3" font-family="Times,serif" font-size="14.00" fill="#000000">__init__</text>
</g>
<!-- saltproc__saltproc__saltproc__init_indices -->
<g id="node5" class="node">
<title>saltproc__saltproc__saltproc__init_indices</title>
<ellipse fill="#ff6565" fill-opacity="0.698039" stroke="black" cx="894" cy="-186" rx="63.89" ry="18"/>
<text text-anchor="middle" x="894" y="-182.3" font-family="Times,serif" font-size="14.00" fill="#000000">init_indices</text>
</g>
<!-- saltproc__saltproc__saltproc____init__&#45;&gt;saltproc__saltproc__saltproc__init_indices -->
<g id="edge1" class="edge">
<title>saltproc__saltproc__saltproc____init__&#45;&gt;saltproc__saltproc__saltproc__init_indices</title>
<path fill="none" stroke="#000000" d="M894,-239.7C894,-231.98 894,-222.71 894,-214.11"/>
<polygon fill="#000000" stroke="#000000" points="897.5,-214.1 894,-204.1 890.5,-214.1 897.5,-214.1"/>
</g>
<!-- saltproc__saltproc__saltproc__init_db -->
<g id="node4" class="node">
<title>saltproc__saltproc__saltproc__init_db</title>
<ellipse fill="#ff6565" fill-opacity="0.698039" stroke="black" cx="770" cy="-186" rx="42.49" ry="18"/>
<text text-anchor="middle" x="770" y="-182.3" font-family="Times,serif" font-size="14.00" fill="#000000">init_db</text>
</g>
<!-- saltproc__saltproc__saltproc__read_bumat -->
<g id="node9" class="node">
<title>saltproc__saltproc__saltproc__read_bumat</title>
<ellipse fill="#ff6565" fill-opacity="0.698039" stroke="black" cx="659" cy="-42" rx="65.79" ry="18"/>
<text text-anchor="middle" x="659" y="-38.3" font-family="Times,serif" font-size="14.00" fill="#000000">read_bumat</text>
</g>
<!-- saltproc__saltproc__saltproc__init_db&#45;&gt;saltproc__saltproc__saltproc__read_bumat -->
<g id="edge2" class="edge">
<title>saltproc__saltproc__saltproc__init_db&#45;&gt;saltproc__saltproc__saltproc__read_bumat</title>
<path fill="none" stroke="#000000" d="M802.28,-174.19C846.09,-159.44 919.2,-134.54 921,-132 930.25,-118.95 931.13,-108.38 921,-96 897.55,-67.33 801.45,-53.8 732.44,-47.69"/>
<polygon fill="#000000" stroke="#000000" points="732.72,-44.2 722.46,-46.84 732.13,-51.17 732.72,-44.2"/>
</g>
<!-- saltproc__saltproc__saltproc__main -->
<g id="node6" class="node">
<title>saltproc__saltproc__saltproc__main</title>
<ellipse fill="#ff6565" fill-opacity="0.698039" stroke="black" cx="489" cy="-258" rx="33.6" ry="18"/>
<text text-anchor="middle" x="489" y="-254.3" font-family="Times,serif" font-size="14.00" fill="#000000">main</text>
</g>
<!-- saltproc__saltproc__saltproc__main&#45;&gt;saltproc__saltproc__saltproc__init_db -->
<g id="edge16" class="edge">
<title>saltproc__saltproc__saltproc__main&#45;&gt;saltproc__saltproc__saltproc__init_db</title>
<path fill="none" stroke="#000000" d="M520.11,-250.81C564.55,-241.76 648.59,-223.8 719,-204 722.14,-203.12 725.38,-202.16 728.63,-201.16"/>
<polygon fill="#000000" stroke="#000000" points="729.84,-204.44 738.31,-198.08 727.72,-197.77 729.84,-204.44"/>
</g>
<!-- saltproc__saltproc__saltproc__process_fuel -->
<g id="node8" class="node">
<title>saltproc__saltproc__saltproc__process_fuel</title>
<ellipse fill="#ff6565" fill-opacity="0.698039" stroke="black" cx="642" cy="-186" rx="68.49" ry="18"/>
<text text-anchor="middle" x="642" y="-182.3" font-family="Times,serif" font-size="14.00" fill="#000000">process_fuel</text>
</g>
<!-- saltproc__saltproc__saltproc__main&#45;&gt;saltproc__saltproc__saltproc__process_fuel -->
<g id="edge18" class="edge">
<title>saltproc__saltproc__saltproc__main&#45;&gt;saltproc__saltproc__saltproc__process_fuel</title>
<path fill="none" stroke="#000000" d="M513.92,-245.6C537.18,-234.96 572.33,-218.87 599.93,-206.25"/>
<polygon fill="#000000" stroke="#000000" points="601.71,-209.28 609.35,-201.94 598.8,-202.92 601.71,-209.28"/>
</g>
<!-- saltproc__saltproc__saltproc__record_db -->
<g id="node11" class="node">
<title>saltproc__saltproc__saltproc__record_db</title>
<ellipse fill="#ff6565" fill-opacity="0.698039" stroke="black" cx="267" cy="-114" rx="57.39" ry="18"/>
<text text-anchor="middle" x="267" y="-110.3" font-family="Times,serif" font-size="14.00" fill="#000000">record_db</text>
</g>
<!-- saltproc__saltproc__saltproc__main&#45;&gt;saltproc__saltproc__saltproc__record_db -->
<g id="edge19" class="edge">
<title>saltproc__saltproc__saltproc__main&#45;&gt;saltproc__saltproc__saltproc__record_db</title>
<path fill="none" stroke="#000000" d="M470.53,-242.61C464.58,-238.6 457.77,-234.63 451,-232 377.99,-203.62 331.05,-260.69 277,-204 261.63,-187.88 260.33,-161.93 262.17,-142.2"/>
<polygon fill="#000000" stroke="#000000" points="265.64,-142.62 263.4,-132.26 258.7,-141.76 265.64,-142.62"/>
</g>
<!-- saltproc__saltproc__saltproc__reopen_db -->
<g id="node14" class="node">
<title>saltproc__saltproc__saltproc__reopen_db</title>
<ellipse fill="#ff6565" fill-opacity="0.698039" stroke="black" cx="345" cy="-186" rx="59.29" ry="18"/>
<text text-anchor="middle" x="345" y="-182.3" font-family="Times,serif" font-size="14.00" fill="#000000">reopen_db</text>
</g>
<!-- saltproc__saltproc__saltproc__main&#45;&gt;saltproc__saltproc__saltproc__reopen_db -->
<g id="edge17" class="edge">
<title>saltproc__saltproc__saltproc__main&#45;&gt;saltproc__saltproc__saltproc__reopen_db</title>
<path fill="none" stroke="#000000" d="M469.3,-243.07C463.53,-239.26 457.13,-235.28 451,-232 431.7,-221.66 409.52,-211.94 390.45,-204.19"/>
<polygon fill="#000000" stroke="#000000" points="391.67,-200.91 381.08,-200.44 389.06,-207.4 391.67,-200.91"/>
</g>
<!-- saltproc__saltproc__saltproc__run_serpent -->
<g id="node15" class="node">
<title>saltproc__saltproc__saltproc__run_serpent</title>
<ellipse fill="#ff6565" fill-opacity="0.698039" stroke="black" cx="489" cy="-186" rx="66.89" ry="18"/>
<text text-anchor="middle" x="489" y="-182.3" font-family="Times,serif" font-size="14.00" fill="#000000">run_serpent</text>
</g>
<!-- saltproc__saltproc__saltproc__main&#45;&gt;saltproc__saltproc__saltproc__run_serpent -->
<g id="edge15" class="edge">
<title>saltproc__saltproc__saltproc__main&#45;&gt;saltproc__saltproc__saltproc__run_serpent</title>
<path fill="none" stroke="#000000" d="M489,-239.7C489,-231.98 489,-222.71 489,-214.11"/>
<polygon fill="#000000" stroke="#000000" points="492.5,-214.1 489,-204.1 485.5,-214.1 492.5,-214.1"/>
</g>
<!-- saltproc__saltproc__saltproc__maintain_const -->
<g id="node7" class="node">
<title>saltproc__saltproc__saltproc__maintain_const</title>
<ellipse fill="#ff6565" fill-opacity="0.698039" stroke="black" cx="821" cy="-114" rx="81.49" ry="18"/>
<text text-anchor="middle" x="821" y="-110.3" font-family="Times,serif" font-size="14.00" fill="#000000">maintain_const</text>
</g>
<!-- saltproc__saltproc__saltproc__maintain_const&#45;&gt;saltproc__saltproc__saltproc__read_bumat -->
<g id="edge14" class="edge">
<title>saltproc__saltproc__saltproc__maintain_const&#45;&gt;saltproc__saltproc__saltproc__read_bumat</title>
<path fill="none" stroke="#000000" d="M785.45,-97.64C760.81,-86.99 727.88,-72.76 701.8,-61.49"/>
<polygon fill="#000000" stroke="#000000" points="703.1,-58.24 692.53,-57.49 700.32,-64.67 703.1,-58.24"/>
</g>
<!-- saltproc__saltproc__saltproc__process_fuel&#45;&gt;saltproc__saltproc__saltproc__maintain_const -->
<g id="edge7" class="edge">
<title>saltproc__saltproc__saltproc__process_fuel&#45;&gt;saltproc__saltproc__saltproc__maintain_const</title>
<path fill="none" stroke="#000000" d="M678.66,-170.67C706.07,-159.95 743.78,-145.2 773.5,-133.57"/>
<polygon fill="#000000" stroke="#000000" points="774.81,-136.82 782.85,-129.92 772.26,-130.3 774.81,-136.82"/>
</g>
<!-- saltproc__saltproc__saltproc__process_fuel&#45;&gt;saltproc__saltproc__saltproc__read_bumat -->
<g id="edge9" class="edge">
<title>saltproc__saltproc__saltproc__process_fuel&#45;&gt;saltproc__saltproc__saltproc__read_bumat</title>
<path fill="none" stroke="#000000" d="M692.07,-173.7C701.03,-171.75 710.28,-169.78 719,-168 761.53,-159.32 883.28,-165.4 911,-132 962.91,-69.45 825.77,-50.83 734.01,-45.31"/>
<polygon fill="#000000" stroke="#000000" points="734.07,-41.81 723.89,-44.74 733.68,-48.8 734.07,-41.81"/>
</g>
<!-- saltproc__saltproc__saltproc__refill -->
<g id="node12" class="node">
<title>saltproc__saltproc__saltproc__refill</title>
<ellipse fill="#ff6565" fill-opacity="0.698039" stroke="black" cx="545" cy="-114" rx="32.49" ry="18"/>
<text text-anchor="middle" x="545" y="-110.3" font-family="Times,serif" font-size="14.00" fill="#000000">refill</text>
</g>
<!-- saltproc__saltproc__saltproc__process_fuel&#45;&gt;saltproc__saltproc__saltproc__refill -->
<g id="edge6" class="edge">
<title>saltproc__saltproc__saltproc__process_fuel&#45;&gt;saltproc__saltproc__saltproc__refill</title>
<path fill="none" stroke="#000000" d="M619.5,-168.76C605.47,-158.64 587.31,-145.53 572.43,-134.79"/>
<polygon fill="#000000" stroke="#000000" points="574.26,-131.8 564.11,-128.79 570.17,-137.48 574.26,-131.8"/>
</g>
<!-- saltproc__saltproc__saltproc__remove_iso -->
<g id="node13" class="node">
<title>saltproc__saltproc__saltproc__remove_iso</title>
<ellipse fill="#ff6565" fill-opacity="0.698039" stroke="black" cx="659" cy="-114" rx="63.09" ry="18"/>
<text text-anchor="middle" x="659" y="-110.3" font-family="Times,serif" font-size="14.00" fill="#000000">remove_iso</text>
</g>
<!-- saltproc__saltproc__saltproc__process_fuel&#45;&gt;saltproc__saltproc__saltproc__remove_iso -->
<g id="edge5" class="edge">
<title>saltproc__saltproc__saltproc__process_fuel&#45;&gt;saltproc__saltproc__saltproc__remove_iso</title>
<path fill="none" stroke="#000000" d="M646.2,-167.7C648.1,-159.9 650.38,-150.51 652.48,-141.83"/>
<polygon fill="#000000" stroke="#000000" points="655.89,-142.65 654.85,-132.1 649.08,-141 655.89,-142.65"/>
</g>
<!-- saltproc__saltproc__saltproc__write_mat_file -->
<g id="node16" class="node">
<title>saltproc__saltproc__saltproc__write_mat_file</title>
<ellipse fill="#ff6565" fill-opacity="0.698039" stroke="black" cx="418" cy="-114" rx="76.09" ry="18"/>
<text text-anchor="middle" x="418" y="-110.3" font-family="Times,serif" font-size="14.00" fill="#000000">write_mat_file</text>
</g>
<!-- saltproc__saltproc__saltproc__process_fuel&#45;&gt;saltproc__saltproc__saltproc__write_mat_file -->
<g id="edge8" class="edge">
<title>saltproc__saltproc__saltproc__process_fuel&#45;&gt;saltproc__saltproc__saltproc__write_mat_file</title>
<path fill="none" stroke="#000000" d="M599.87,-171.83C563.53,-160.48 510.86,-144.02 471.55,-131.73"/>
<polygon fill="#000000" stroke="#000000" points="472.45,-128.35 461.86,-128.71 470.36,-135.03 472.45,-128.35"/>
</g>
<!-- saltproc__saltproc__saltproc__read_res -->
<g id="node10" class="node">
<title>saltproc__saltproc__saltproc__read_res</title>
<ellipse fill="#ff6565" fill-opacity="0.698039" stroke="black" cx="342" cy="-42" rx="50.89" ry="18"/>
<text text-anchor="middle" x="342" y="-38.3" font-family="Times,serif" font-size="14.00" fill="#000000">read_res</text>
</g>
<!-- saltproc__saltproc__saltproc__record_db&#45;&gt;saltproc__saltproc__saltproc__read_bumat -->
<g id="edge11" class="edge">
<title>saltproc__saltproc__saltproc__record_db&#45;&gt;saltproc__saltproc__saltproc__read_bumat</title>
<path fill="none" stroke="#000000" d="M308.76,-101.63C316.78,-99.62 325.13,-97.65 333,-96 421.56,-77.44 524.82,-61.62 591,-52.22"/>
<polygon fill="#000000" stroke="#000000" points="591.88,-55.63 601.29,-50.76 590.9,-48.7 591.88,-55.63"/>
</g>
<!-- saltproc__saltproc__saltproc__record_db&#45;&gt;saltproc__saltproc__saltproc__read_res -->
<g id="edge10" class="edge">
<title>saltproc__saltproc__saltproc__record_db&#45;&gt;saltproc__saltproc__saltproc__read_res</title>
<path fill="none" stroke="#000000" d="M284.4,-96.76C294.14,-87.66 306.47,-76.16 317.21,-66.13"/>
<polygon fill="#000000" stroke="#000000" points="319.78,-68.53 324.7,-59.15 315,-63.41 319.78,-68.53"/>
</g>
<!-- saltproc__saltproc__saltproc__refill&#45;&gt;saltproc__saltproc__saltproc__read_bumat -->
<g id="edge13" class="edge">
<title>saltproc__saltproc__saltproc__refill&#45;&gt;saltproc__saltproc__saltproc__read_bumat</title>
<path fill="none" stroke="#000000" d="M565.91,-100.16C582.33,-90.08 605.55,-75.82 624.69,-64.07"/>
<polygon fill="#000000" stroke="#000000" points="626.74,-66.91 633.43,-58.7 623.08,-60.95 626.74,-66.91"/>
</g>
<!-- saltproc__saltproc__saltproc__remove_iso&#45;&gt;saltproc__saltproc__saltproc__read_bumat -->
<g id="edge12" class="edge">
<title>saltproc__saltproc__saltproc__remove_iso&#45;&gt;saltproc__saltproc__saltproc__read_bumat</title>
<path fill="none" stroke="#000000" d="M659,-95.7C659,-87.98 659,-78.71 659,-70.11"/>
<polygon fill="#000000" stroke="#000000" points="662.5,-70.1 659,-60.1 655.5,-70.1 662.5,-70.1"/>
</g>
<!-- saltproc__saltproc__saltproc__write_mat_file&#45;&gt;saltproc__saltproc__saltproc__read_bumat -->
<g id="edge4" class="edge">
<title>saltproc__saltproc__saltproc__write_mat_file&#45;&gt;saltproc__saltproc__saltproc__read_bumat</title>
<path fill="none" stroke="#000000" d="M464.18,-99.59C504.55,-87.86 563.16,-70.84 605.55,-58.53"/>
<polygon fill="#000000" stroke="#000000" points="606.78,-61.81 615.41,-55.66 604.83,-55.09 606.78,-61.81"/>
</g>
<!-- saltproc__saltproc__saltproc__write_mat_file&#45;&gt;saltproc__saltproc__saltproc__read_res -->
<g id="edge3" class="edge">
<title>saltproc__saltproc__saltproc__write_mat_file&#45;&gt;saltproc__saltproc__saltproc__read_res</title>
<path fill="none" stroke="#000000" d="M399.99,-96.41C390.1,-87.3 377.68,-75.87 366.88,-65.92"/>
<polygon fill="#000000" stroke="#000000" points="369.09,-63.19 359.36,-58.99 364.34,-68.34 369.09,-63.19"/>
</g>
</g>
</svg>
