<?xml version="1.0" encoding="UTF-8" standalone="no"?>
<!DOCTYPE svg PUBLIC "-//W3C//DTD SVG 1.1//EN"
 "http://www.w3.org/Graphics/SVG/1.1/DTD/svg11.dtd">
<!-- Generated by graphviz version 2.50.0 (20220117.2223)
 -->
<!-- Title: G Pages: 1 -->
<svg width="1660pt" height="270pt"
 viewBox="0.00 0.00 1660.00 270.00" xmlns="http://www.w3.org/2000/svg" xmlns:xlink="http://www.w3.org/1999/xlink">
<g id="graph0" class="graph" transform="scale(1 1) rotate(0) translate(4 266)">
<title>G</title>
<polygon fill="white" stroke="transparent" points="-4,4 -4,-266 1656,-266 1656,4 -4,4"/>
<g id="clust1" class="cluster">
<title>cluster_G</title>
<path fill="#808080" fill-opacity="0.094118" stroke="black" d="M20,-8C20,-8 1632,-8 1632,-8 1638,-8 1644,-14 1644,-20 1644,-20 1644,-242 1644,-242 1644,-248 1638,-254 1632,-254 1632,-254 20,-254 20,-254 14,-254 8,-248 8,-242 8,-242 8,-20 8,-20 8,-14 14,-8 20,-8"/>
</g>
<g id="clust2" class="cluster">
<title>cluster_saltproc__simulation</title>
<path fill="#808080" fill-opacity="0.094118" stroke="black" d="M1494,-171C1494,-171 1624,-171 1624,-171 1630,-171 1636,-177 1636,-183 1636,-183 1636,-234 1636,-234 1636,-240 1630,-246 1624,-246 1624,-246 1494,-246 1494,-246 1488,-246 1482,-240 1482,-234 1482,-234 1482,-183 1482,-183 1482,-177 1488,-171 1494,-171"/>
<text text-anchor="middle" x="1559" y="-230.8" font-family="Times,serif" font-size="14.00">saltproc.simulation</text>
</g>
<g id="clust3" class="cluster">
<title>cluster_saltproc__simulation__Simulation</title>
<path fill="#808080" fill-opacity="0.094118" stroke="black" d="M238,-99C238,-99 1462,-99 1462,-99 1468,-99 1474,-105 1474,-111 1474,-111 1474,-234 1474,-234 1474,-240 1468,-246 1462,-246 1462,-246 238,-246 238,-246 232,-246 226,-240 226,-234 226,-234 226,-111 226,-111 226,-105 232,-99 238,-99"/>
<text text-anchor="middle" x="850" y="-230.8" font-family="Times,serif" font-size="14.00">saltproc.simulation.Simulation</text>
</g>
<g id="clust4" class="cluster">
<title>cluster_saltproc__simulation__Simulation__store_run_step_info</title>
<path fill="#808080" fill-opacity="0.094118" stroke="black" d="M829,-16C829,-16 1185,-16 1185,-16 1191,-16 1197,-22 1197,-28 1197,-28 1197,-79 1197,-79 1197,-85 1191,-91 1185,-91 1185,-91 829,-91 829,-91 823,-91 817,-85 817,-79 817,-79 817,-28 817,-28 817,-22 823,-16 829,-16"/>
<text text-anchor="middle" x="1007" y="-75.8" font-family="Times,serif" font-size="14.00">saltproc.simulation.Simulation.store_run_step_info</text>
</g>
<!-- saltproc__simulation -->
<g id="node1" class="node">
<title>saltproc__simulation</title>
<ellipse fill="#ffffff" fill-opacity="0.698039" stroke="black" cx="116" cy="-197" rx="100.18" ry="18"/>
<text text-anchor="middle" x="116" y="-193.3" font-family="Times,serif" font-size="14.00" fill="#000000">saltproc.simulation</text>
</g>
<!-- saltproc__simulation__Simulation -->
<g id="node2" class="node">
<title>saltproc__simulation__Simulation</title>
<ellipse fill="#ff9999" fill-opacity="0.698039" stroke="black" cx="1559" cy="-197" rx="61.19" ry="18"/>
<text text-anchor="middle" x="1559" y="-193.3" font-family="Times,serif" font-size="14.00" fill="#000000">Simulation</text>
</g>
<!-- saltproc__simulation__Simulation____init__ -->
<g id="node3" class="node">
<title>saltproc__simulation__Simulation____init__</title>
<ellipse fill="#ff6565" fill-opacity="0.698039" stroke="black" cx="1422" cy="-197" rx="44.39" ry="18"/>
<text text-anchor="middle" x="1422" y="-193.3" font-family="Times,serif" font-size="14.00" fill="#000000">__init__</text>
</g>
<!-- saltproc__simulation__Simulation__check_switch_geo_trigger -->
<g id="node4" class="node">
<title>saltproc__simulation__Simulation__check_switch_geo_trigger</title>
<ellipse fill="#ff6565" fill-opacity="0.698039" stroke="black" cx="1230" cy="-197" rx="129.98" ry="18"/>
<text text-anchor="middle" x="1230" y="-193.3" font-family="Times,serif" font-size="14.00" fill="#000000">check_switch_geo_trigger</text>
</g>
<!-- saltproc__simulation__Simulation__read_k_eds_delta -->
<g id="node5" class="node">
<title>saltproc__simulation__Simulation__read_k_eds_delta</title>
<ellipse fill="#ff6565" fill-opacity="0.698039" stroke="black" cx="992" cy="-197" rx="89.88" ry="18"/>
<text text-anchor="middle" x="992" y="-193.3" font-family="Times,serif" font-size="14.00" fill="#000000">read_k_eds_delta</text>
</g>
<!-- saltproc__simulation__Simulation__runsim_no_reproc -->
<g id="node6" class="node">
<title>saltproc__simulation__Simulation__runsim_no_reproc</title>
<ellipse fill="#ff6565" fill-opacity="0.698039" stroke="black" cx="791" cy="-197" rx="93.68" ry="18"/>
<text text-anchor="middle" x="791" y="-193.3" font-family="Times,serif" font-size="14.00" fill="#000000">runsim_no_reproc</text>
</g>
<!-- saltproc__simulation__Simulation__store_mat_data -->
<g id="node8" class="node">
<title>saltproc__simulation__Simulation__store_mat_data</title>
<ellipse fill="#ff6565" fill-opacity="0.698039" stroke="black" cx="594" cy="-125" rx="81.79" ry="18"/>
<text text-anchor="middle" x="594" y="-121.3" font-family="Times,serif" font-size="14.00" fill="#000000">store_mat_data</text>
</g>
<!-- saltproc__simulation__Simulation__runsim_no_reproc&#45;&gt;saltproc__simulation__Simulation__store_mat_data -->
<g id="edge3" class="edge">
<title>saltproc__simulation__Simulation__runsim_no_reproc&#45;&gt;saltproc__simulation__Simulation__store_mat_data</title>
<path fill="none" stroke="#000000" d="M748.25,-180.81C717.9,-170.02 677.01,-155.5 644.96,-144.11"/>
<polygon fill="#000000" stroke="#000000" points="645.91,-140.73 635.31,-140.68 643.56,-147.33 645.91,-140.73"/>
</g>
<!-- saltproc__simulation__Simulation__store_run_init_info -->
<g id="node9" class="node">
<title>saltproc__simulation__Simulation__store_run_init_info</title>
<ellipse fill="#ff6565" fill-opacity="0.698039" stroke="black" cx="791" cy="-125" rx="96.68" ry="18"/>
<text text-anchor="middle" x="791" y="-121.3" font-family="Times,serif" font-size="14.00" fill="#000000">store_run_init_info</text>
</g>
<!-- saltproc__simulation__Simulation__runsim_no_reproc&#45;&gt;saltproc__simulation__Simulation__store_run_init_info -->
<g id="edge2" class="edge">
<title>saltproc__simulation__Simulation__runsim_no_reproc&#45;&gt;saltproc__simulation__Simulation__store_run_init_info</title>
<path fill="none" stroke="#000000" d="M791,-178.7C791,-170.98 791,-161.71 791,-153.11"/>
<polygon fill="#000000" stroke="#000000" points="794.5,-153.1 791,-143.1 787.5,-153.1 794.5,-153.1"/>
</g>
<!-- saltproc__simulation__Simulation__store_run_step_info -->
<g id="node10" class="node">
<title>saltproc__simulation__Simulation__store_run_step_info</title>
<ellipse fill="#ff6565" fill-opacity="0.698039" stroke="black" cx="1007" cy="-125" rx="101.28" ry="18"/>
<text text-anchor="middle" x="1007" y="-121.3" font-family="Times,serif" font-size="14.00" fill="#000000">store_run_step_info</text>
</g>
<!-- saltproc__simulation__Simulation__runsim_no_reproc&#45;&gt;saltproc__simulation__Simulation__store_run_step_info -->
<g id="edge1" class="edge">
<title>saltproc__simulation__Simulation__runsim_no_reproc&#45;&gt;saltproc__simulation__Simulation__store_run_step_info</title>
<path fill="none" stroke="#000000" d="M836.54,-181.24C869.81,-170.46 915.11,-155.78 950.65,-144.26"/>
<polygon fill="#000000" stroke="#000000" points="951.97,-147.51 960.4,-141.1 949.81,-140.86 951.97,-147.51"/>
</g>
<!-- saltproc__simulation__Simulation__store_after_repr -->
<g id="node7" class="node">
<title>saltproc__simulation__Simulation__store_after_repr</title>
<ellipse fill="#ff6565" fill-opacity="0.698039" stroke="black" cx="594" cy="-197" rx="85.59" ry="18"/>
<text text-anchor="middle" x="594" y="-193.3" font-family="Times,serif" font-size="14.00" fill="#000000">store_after_repr</text>
</g>
<!-- saltproc__simulation__Simulation__store_after_repr&#45;&gt;saltproc__simulation__Simulation__store_mat_data -->
<g id="edge4" class="edge">
<title>saltproc__simulation__Simulation__store_after_repr&#45;&gt;saltproc__simulation__Simulation__store_mat_data</title>
<path fill="none" stroke="#000000" d="M594,-178.7C594,-170.98 594,-161.71 594,-153.11"/>
<polygon fill="#000000" stroke="#000000" points="597.5,-153.1 594,-143.1 590.5,-153.1 597.5,-153.1"/>
</g>
<!-- saltproc__simulation__Simulation__store_run_step_info__Step_info -->
<g id="node12" class="node">
<title>saltproc__simulation__Simulation__store_run_step_info__Step_info</title>
<ellipse fill="#ff3232" fill-opacity="0.698039" stroke="black" cx="1007" cy="-42" rx="53.89" ry="18"/>
<text text-anchor="middle" x="1007" y="-38.3" font-family="Times,serif" font-size="14.00" fill="#000000">Step_info</text>
</g>
<!-- saltproc__simulation__Simulation__store_run_step_info&#45;&gt;saltproc__simulation__Simulation__store_run_step_info__Step_info -->
<g id="edge5" class="edge">
<title>saltproc__simulation__Simulation__store_run_step_info&#45;&gt;saltproc__simulation__Simulation__store_run_step_info__Step_info</title>
<path fill="none" stroke="#000000" d="M1007,-106.82C1007,-96.19 1007,-82.31 1007,-70.2"/>
<polygon fill="#000000" stroke="#000000" points="1010.5,-70.15 1007,-60.15 1003.5,-70.15 1010.5,-70.15"/>
</g>
<!-- saltproc__simulation__Simulation__switch_to_next_geometry -->
<g id="node11" class="node">
<title>saltproc__simulation__Simulation__switch_to_next_geometry</title>
<ellipse fill="#ff6565" fill-opacity="0.698039" stroke="black" cx="362" cy="-197" rx="128.08" ry="18"/>
<text text-anchor="middle" x="362" y="-193.3" font-family="Times,serif" font-size="14.00" fill="#000000">switch_to_next_geometry</text>
</g>
</g>
</svg>
