<?xml version="1.0" encoding="UTF-8" standalone="no"?>
<!DOCTYPE svg PUBLIC "-//W3C//DTD SVG 1.1//EN"
 "http://www.w3.org/Graphics/SVG/1.1/DTD/svg11.dtd">
<!-- Generated by graphviz version 2.50.0 (20220117.2223)
 -->
<!-- Title: G Pages: 1 -->
<svg width="2005pt" height="198pt"
 viewBox="0.00 0.00 2005.00 198.00" xmlns="http://www.w3.org/2000/svg" xmlns:xlink="http://www.w3.org/1999/xlink">
<g id="graph0" class="graph" transform="scale(1 1) rotate(0) translate(4 194)">
<title>G</title>
<polygon fill="white" stroke="transparent" points="-4,4 -4,-194 2001,-194 2001,4 -4,4"/>
<g id="clust1" class="cluster">
<title>cluster_G</title>
<path fill="#808080" fill-opacity="0.094118" stroke="black" d="M20,-8C20,-8 1977,-8 1977,-8 1983,-8 1989,-14 1989,-20 1989,-20 1989,-170 1989,-170 1989,-176 1983,-182 1977,-182 1977,-182 20,-182 20,-182 14,-182 8,-176 8,-170 8,-170 8,-20 8,-20 8,-14 14,-8 20,-8"/>
</g>
<g id="clust2" class="cluster">
<title>cluster_saltproc__simulation</title>
<path fill="#808080" fill-opacity="0.094118" stroke="black" d="M1726,-99C1726,-99 1856,-99 1856,-99 1862,-99 1868,-105 1868,-111 1868,-111 1868,-162 1868,-162 1868,-168 1862,-174 1856,-174 1856,-174 1726,-174 1726,-174 1720,-174 1714,-168 1714,-162 1714,-162 1714,-111 1714,-111 1714,-105 1720,-99 1726,-99"/>
<text text-anchor="middle" x="1791" y="-158.8" font-family="Times,serif" font-size="14.00">saltproc.simulation</text>
</g>
<g id="clust3" class="cluster">
<title>cluster_saltproc__simulation__Simulation</title>
<path fill="#808080" fill-opacity="0.094118" stroke="black" d="M238,-16C238,-16 1581,-16 1581,-16 1587,-16 1593,-22 1593,-28 1593,-28 1593,-162 1593,-162 1593,-168 1587,-174 1581,-174 1581,-174 238,-174 238,-174 232,-174 226,-168 226,-162 226,-162 226,-28 226,-28 226,-22 232,-16 238,-16"/>
<text text-anchor="middle" x="909.5" y="-158.8" font-family="Times,serif" font-size="14.00">saltproc.simulation.Simulation</text>
</g>
<g id="clust4" class="cluster">
<title>cluster_saltproc__simulation__Simulation__store_run_step_info</title>
<path fill="#808080" fill-opacity="0.094118" stroke="black" d="M1613,-16C1613,-16 1969,-16 1969,-16 1975,-16 1981,-22 1981,-28 1981,-28 1981,-79 1981,-79 1981,-85 1975,-91 1969,-91 1969,-91 1613,-91 1613,-91 1607,-91 1601,-85 1601,-79 1601,-79 1601,-28 1601,-28 1601,-22 1607,-16 1613,-16"/>
<text text-anchor="middle" x="1791" y="-75.8" font-family="Times,serif" font-size="14.00">saltproc.simulation.Simulation.store_run_step_info</text>
</g>
<!-- saltproc__simulation -->
<g id="node1" class="node">
<title>saltproc__simulation</title>
<ellipse fill="#ffffff" fill-opacity="0.698039" stroke="black" cx="116" cy="-125" rx="100.18" ry="18"/>
<text text-anchor="middle" x="116" y="-121.3" font-family="Times,serif" font-size="14.00" fill="#000000">saltproc.simulation</text>
</g>
<!-- saltproc__simulation__Simulation -->
<g id="node2" class="node">
<title>saltproc__simulation__Simulation</title>
<ellipse fill="#ff9999" fill-opacity="0.698039" stroke="black" cx="1791" cy="-125" rx="61.19" ry="18"/>
<text text-anchor="middle" x="1791" y="-121.3" font-family="Times,serif" font-size="14.00" fill="#000000">Simulation</text>
</g>
<!-- saltproc__simulation__Simulation____init__ -->
<g id="node3" class="node">
<title>saltproc__simulation__Simulation____init__</title>
<ellipse fill="#ff6565" fill-opacity="0.698039" stroke="black" cx="1541" cy="-125" rx="44.39" ry="18"/>
<text text-anchor="middle" x="1541" y="-121.3" font-family="Times,serif" font-size="14.00" fill="#000000">__init__</text>
</g>
<!-- saltproc__simulation__Simulation__check_restart -->
<g id="node4" class="node">
<title>saltproc__simulation__Simulation__check_restart</title>
<ellipse fill="#ff6565" fill-opacity="0.698039" stroke="black" cx="1405" cy="-125" rx="73.39" ry="18"/>
<text text-anchor="middle" x="1405" y="-121.3" font-family="Times,serif" font-size="14.00" fill="#000000">check_restart</text>
</g>
<!-- saltproc__simulation__Simulation__check_switch_geo_trigger -->
<g id="node5" class="node">
<title>saltproc__simulation__Simulation__check_switch_geo_trigger</title>
<ellipse fill="#ff6565" fill-opacity="0.698039" stroke="black" cx="1184" cy="-125" rx="129.98" ry="18"/>
<text text-anchor="middle" x="1184" y="-121.3" font-family="Times,serif" font-size="14.00" fill="#000000">check_switch_geo_trigger</text>
</g>
<!-- saltproc__simulation__Simulation__read_k_eds_delta -->
<g id="node6" class="node">
<title>saltproc__simulation__Simulation__read_k_eds_delta</title>
<ellipse fill="#ff6565" fill-opacity="0.698039" stroke="black" cx="946" cy="-125" rx="89.88" ry="18"/>
<text text-anchor="middle" x="946" y="-121.3" font-family="Times,serif" font-size="14.00" fill="#000000">read_k_eds_delta</text>
</g>
<!-- saltproc__simulation__Simulation__store_after_repr -->
<g id="node7" class="node">
<title>saltproc__simulation__Simulation__store_after_repr</title>
<ellipse fill="#ff6565" fill-opacity="0.698039" stroke="black" cx="320" cy="-125" rx="85.59" ry="18"/>
<text text-anchor="middle" x="320" y="-121.3" font-family="Times,serif" font-size="14.00" fill="#000000">store_after_repr</text>
</g>
<!-- saltproc__simulation__Simulation__store_mat_data -->
<g id="node8" class="node">
<title>saltproc__simulation__Simulation__store_mat_data</title>
<ellipse fill="#ff6565" fill-opacity="0.698039" stroke="black" cx="320" cy="-42" rx="81.79" ry="18"/>
<text text-anchor="middle" x="320" y="-38.3" font-family="Times,serif" font-size="14.00" fill="#000000">store_mat_data</text>
</g>
<!-- saltproc__simulation__Simulation__store_after_repr&#45;&gt;saltproc__simulation__Simulation__store_mat_data -->
<g id="edge1" class="edge">
<title>saltproc__simulation__Simulation__store_after_repr&#45;&gt;saltproc__simulation__Simulation__store_mat_data</title>
<path fill="none" stroke="#000000" d="M320,-106.82C320,-96.19 320,-82.31 320,-70.2"/>
<polygon fill="#000000" stroke="#000000" points="323.5,-70.15 320,-60.15 316.5,-70.15 323.5,-70.15"/>
</g>
<!-- saltproc__simulation__Simulation__store_run_init_info -->
<g id="node9" class="node">
<title>saltproc__simulation__Simulation__store_run_init_info</title>
<ellipse fill="#ff6565" fill-opacity="0.698039" stroke="black" cx="521" cy="-125" rx="96.68" ry="18"/>
<text text-anchor="middle" x="521" y="-121.3" font-family="Times,serif" font-size="14.00" fill="#000000">store_run_init_info</text>
</g>
<!-- saltproc__simulation__Simulation__store_run_step_info -->
<g id="node10" class="node">
<title>saltproc__simulation__Simulation__store_run_step_info</title>
<ellipse fill="#ff6565" fill-opacity="0.698039" stroke="black" cx="737" cy="-125" rx="101.28" ry="18"/>
<text text-anchor="middle" x="737" y="-121.3" font-family="Times,serif" font-size="14.00" fill="#000000">store_run_step_info</text>
</g>
<!-- saltproc__simulation__Simulation__store_run_step_info__Step_info -->
<g id="node11" class="node">
<title>saltproc__simulation__Simulation__store_run_step_info__Step_info</title>
<ellipse fill="#ff3232" fill-opacity="0.698039" stroke="black" cx="1663" cy="-42" rx="53.89" ry="18"/>
<text text-anchor="middle" x="1663" y="-38.3" font-family="Times,serif" font-size="14.00" fill="#000000">Step_info</text>
</g>
<!-- saltproc__simulation__Simulation__store_run_step_info&#45;&gt;saltproc__simulation__Simulation__store_run_step_info__Step_info -->
<g id="edge2" class="edge">
<title>saltproc__simulation__Simulation__store_run_step_info&#45;&gt;saltproc__simulation__Simulation__store_run_step_info__Step_info</title>
<path fill="none" stroke="#000000" d="M789.76,-109.62C807.77,-105.35 828.13,-101.22 847,-99 888.38,-94.13 1557.44,-104.1 1597,-91 1612.52,-85.86 1627.45,-75.61 1639.18,-65.89"/>
<polygon fill="#000000" stroke="#000000" points="1641.5,-68.51 1646.75,-59.32 1636.91,-63.23 1641.5,-68.51"/>
</g>
</g>
</svg>
